<?xml version="1.0" encoding="UTF-8" standalone="no"?>
<svg width="189.794mm" height="137.231mm"
 viewBox="0 0 538 389"
 xmlns="http://www.w3.org/2000/svg" xmlns:xlink="http://www.w3.org/1999/xlink"  version="1.2" baseProfile="tiny">
<title>Qt SVG Document</title>
<desc>MATLAB, The MathWorks, Inc. Version 25.2.0.3042426 R2025b Update 1</desc>
<defs>
</defs>
<g fill="none" stroke="black" stroke-width="1" fill-rule="evenodd" stroke-linecap="square" stroke-linejoin="bevel" >

<g fill="#ffffff" fill-opacity="1" stroke="none" transform="matrix(0.75,0,0,0.75,0,0)"
font-family=".AppleSystemUIFont" font-size="13" font-weight="400" font-style="normal" 
>
<path vector-effect="none" fill-rule="evenodd" d="M0,0 L718,0 L718,520 L0,520 L0,0"/>
</g>

<g fill="#ffffff" fill-opacity="1" stroke="none" transform="matrix(7.5e-05,0,0,7.5e-05,0,0)"
font-family=".AppleSystemUIFont" font-size="13" font-weight="400" font-style="normal" 
>
<path vector-effect="none" fill-rule="evenodd" d="M930000,420000 L930000,1.96e+06 L3.21e+06,1.96e+06 L3.21e+06,420000 L930000,420000"/>
</g>

<g fill="#212121" fill-opacity="0.14902" stroke="#212121" stroke-opacity="0.14902" stroke-width="1.6" stroke-linecap="butt" stroke-linejoin="round" transform="matrix(0.75,0,0,0.75,0,0)"
font-family=".AppleSystemUIFont" font-size="13" font-weight="400" font-style="normal" 
>
<polyline fill="none" vector-effect="none" points="93,42 93,196 " />
<polyline fill="none" vector-effect="none" points="207,42 207,196 " />
<polyline fill="none" vector-effect="none" points="321,42 321,196 " />
<polyline fill="none" vector-effect="none" points="93,196 321,196 " />
<polyline fill="none" vector-effect="none" points="93,147.875 321,147.875 " />
<polyline fill="none" vector-effect="none" points="93,99.75 321,99.75 " />
<polyline fill="none" vector-effect="none" points="93,51.625 321,51.625 " />
</g>

<g fill="#4d4d4d" fill-opacity="1" stroke="#4d4d4d" stroke-opacity="1" stroke-width="1" stroke-linecap="square" stroke-linejoin="bevel" transform="matrix(0.75,0,0,0.75,91.5001,185.631)"
font-family="Georgia" font-size="22" font-weight="400" font-style="normal" 
>
<text fill="#4d4d4d" fill-opacity="1" stroke="none" xml:space="preserve" x="0" y="0.171875" font-family="Georgia" font-size="22" font-weight="400" font-style="normal" 
 >Wavelength (nm)</text>
</g>

<g fill="#4d4d4d" fill-opacity="1" stroke="#4d4d4d" stroke-opacity="1" stroke-width="1.6" stroke-linecap="square" stroke-linejoin="round" transform="matrix(0.75,0,0,0.75,0,0)"
font-family="Georgia" font-size="22" font-weight="400" font-style="normal" 
>
<polyline fill="none" vector-effect="none" points="93,196 321,196 " />
<polyline fill="none" vector-effect="none" points="93,42 321,42 " />
<polyline fill="none" vector-effect="none" points="93,196 93,193.72 " />
<polyline fill="none" vector-effect="none" points="93,44.28 93,42 " />
<polyline fill="none" vector-effect="none" points="207,196 207,193.72 " />
<polyline fill="none" vector-effect="none" points="207,44.28 207,42 " />
<polyline fill="none" vector-effect="none" points="321,196 321,193.72 " />
<polyline fill="none" vector-effect="none" points="321,44.28 321,42 " />
</g>

<g fill="#4d4d4d" fill-opacity="1" stroke="#4d4d4d" stroke-opacity="1" stroke-width="1" stroke-linecap="square" stroke-linejoin="bevel" transform="matrix(0.75,0,0,0.75,56.625,165.287)"
font-family="Georgia" font-size="20" font-weight="400" font-style="normal" 
>
<text fill="#4d4d4d" fill-opacity="1" stroke="none" xml:space="preserve" x="0" y="0.328125" font-family="Georgia" font-size="20" font-weight="400" font-style="normal" 
 >500</text>
</g>

<g fill="#4d4d4d" fill-opacity="1" stroke="#4d4d4d" stroke-opacity="1" stroke-width="1" stroke-linecap="square" stroke-linejoin="bevel" transform="matrix(0.75,0,0,0.75,141.75,165.287)"
font-family="Georgia" font-size="20" font-weight="400" font-style="normal" 
>
<text fill="#4d4d4d" fill-opacity="1" stroke="none" xml:space="preserve" x="0" y="0.328125" font-family="Georgia" font-size="20" font-weight="400" font-style="normal" 
 >600</text>
</g>

<g fill="#4d4d4d" fill-opacity="1" stroke="#4d4d4d" stroke-opacity="1" stroke-width="1" stroke-linecap="square" stroke-linejoin="bevel" transform="matrix(0.75,0,0,0.75,227.625,165.287)"
font-family="Georgia" font-size="20" font-weight="400" font-style="normal" 
>
<text fill="#4d4d4d" fill-opacity="1" stroke="none" xml:space="preserve" x="0" y="0.328125" font-family="Georgia" font-size="20" font-weight="400" font-style="normal" 
 >700</text>
</g>

<g fill="#4d4d4d" fill-opacity="1" stroke="#4d4d4d" stroke-opacity="1" stroke-width="1" stroke-linecap="square" stroke-linejoin="bevel" transform="matrix(0,-0.75,0.75,0,35.275,165.375)"
font-family="Georgia" font-size="22" font-weight="400" font-style="normal" 
>
<text fill="#4d4d4d" fill-opacity="1" stroke="none" xml:space="preserve" x="0" y="0.171875" font-family="Georgia" font-size="22" font-weight="400" font-style="normal" 
 >Normalized radiance</text>
</g>

<g fill="#4d4d4d" fill-opacity="1" stroke="#4d4d4d" stroke-opacity="1" stroke-width="1.6" stroke-linecap="square" stroke-linejoin="round" transform="matrix(0.75,0,0,0.75,0,0)"
font-family="Georgia" font-size="22" font-weight="400" font-style="normal" 
>
<polyline fill="none" vector-effect="none" points="93,196 93,42 " />
<polyline fill="none" vector-effect="none" points="321,196 321,42 " />
<polyline fill="none" vector-effect="none" points="93,196 95.28,196 " />
<polyline fill="none" vector-effect="none" points="318.72,196 321,196 " />
<polyline fill="none" vector-effect="none" points="93,147.875 95.28,147.875 " />
<polyline fill="none" vector-effect="none" points="318.72,147.875 321,147.875 " />
<polyline fill="none" vector-effect="none" points="93,99.75 95.28,99.75 " />
<polyline fill="none" vector-effect="none" points="318.72,99.75 321,99.75 " />
<polyline fill="none" vector-effect="none" points="93,51.625 95.28,51.625 " />
<polyline fill="none" vector-effect="none" points="318.72,51.625 321,51.625 " />
</g>

<g fill="#4d4d4d" fill-opacity="1" stroke="#4d4d4d" stroke-opacity="1" stroke-width="1" stroke-linecap="square" stroke-linejoin="bevel" transform="matrix(0.75,0,0,0.75,55.9625,152.25)"
font-family="Georgia" font-size="20" font-weight="400" font-style="normal" 
>
<text fill="#4d4d4d" fill-opacity="1" stroke="none" xml:space="preserve" x="0" y="0.328125" font-family="Georgia" font-size="20" font-weight="400" font-style="normal" 
 >0</text>
</g>

<g fill="#4d4d4d" fill-opacity="1" stroke="#4d4d4d" stroke-opacity="1" stroke-width="1" stroke-linecap="square" stroke-linejoin="bevel" transform="matrix(0.75,0,0,0.75,43.9625,116.156)"
font-family="Georgia" font-size="20" font-weight="400" font-style="normal" 
>
<text fill="#4d4d4d" fill-opacity="1" stroke="none" xml:space="preserve" x="0" y="0.328125" font-family="Georgia" font-size="20" font-weight="400" font-style="normal" 
 >0.5</text>
</g>

<g fill="#4d4d4d" fill-opacity="1" stroke="#4d4d4d" stroke-opacity="1" stroke-width="1" stroke-linecap="square" stroke-linejoin="bevel" transform="matrix(0.75,0,0,0.75,58.2125,80.0625)"
font-family="Georgia" font-size="20" font-weight="400" font-style="normal" 
>
<text fill="#4d4d4d" fill-opacity="1" stroke="none" xml:space="preserve" x="0" y="0.328125" font-family="Georgia" font-size="20" font-weight="400" font-style="normal" 
 >1</text>
</g>

<g fill="#4d4d4d" fill-opacity="1" stroke="#4d4d4d" stroke-opacity="1" stroke-width="1" stroke-linecap="square" stroke-linejoin="bevel" transform="matrix(0.75,0,0,0.75,46.2125,43.9688)"
font-family="Georgia" font-size="20" font-weight="400" font-style="normal" 
>
<text fill="#4d4d4d" fill-opacity="1" stroke="none" xml:space="preserve" x="0" y="0.328125" font-family="Georgia" font-size="20" font-weight="400" font-style="normal" 
 >1.5</text>
</g>

<g fill="#4d4d4d" fill-opacity="1" stroke="#4d4d4d" stroke-opacity="1" stroke-width="1" stroke-linecap="square" stroke-linejoin="bevel" transform="matrix(0.75,0,0,0.75,62.2502,24.5531)"
font-family="Georgia" font-size="22" font-weight="700" font-style="normal" 
>
<text fill="#4d4d4d" fill-opacity="1" stroke="none" xml:space="preserve" x="0" y="0.171875" font-family="Georgia" font-size="22" font-weight="700" font-style="normal" 
 >Subject 1:  rmse 0.045</text>
</g>

<g fill="none" stroke="#000000" stroke-opacity="1" stroke-dasharray="8,8" stroke-dashoffset="0" stroke-width="2.66667" stroke-linecap="butt" stroke-linejoin="round" transform="matrix(0.75,0,0,0.75,0,0)"
font-family="Georgia" font-size="22" font-weight="700" font-style="normal" 
>
<polyline fill="none" vector-effect="none" points="93,112.013 94.14,110.218 95.28,108.472 96.42,106.84 97.56,105.205 98.7,103.316 99.84,101.815 100.98,100.646 102.12,99.4909 103.26,98.3168 104.4,97.1463 105.54,96.3854 106.68,95.6546 107.82,94.9704 108.96,94.3405 110.1,93.7699 111.24,93.7739 112.38,94.0718 113.52,94.487 114.66,94.7823 115.8,95.073 116.94,95.8147 118.08,96.5608 119.22,97.2955 120.36,97.988 121.5,98.6143 122.64,99.621 123.78,100.544 124.92,101.403 126.06,102.215 127.2,102.955 128.34,103.718 129.48,104.4 130.62,104.999 131.76,105.554 132.9,106.09 134.04,106.711 135.18,107.297 136.32,107.863 137.46,108.427 138.6,108.96 139.74,109.562 140.88,110.161 142.02,110.737 143.16,111.289 144.3,111.827 145.44,112.608 146.58,113.363 147.72,114.092 148.86,114.794 150,115.475 151.14,116.105 152.28,116.727 153.42,117.348 154.56,117.97 155.7,118.585 156.84,119.261 157.98,120.02 159.12,120.803 160.26,121.567 161.4,122.38 162.54,123.295 163.68,124.212 164.82,125.217 165.96,126.298 167.1,127.411 168.24,128.575 169.38,129.746 170.52,130.909 171.66,132.048 172.8,133.161 173.94,134.186 175.08,135.18 176.22,136.146 177.36,137.079 178.5,137.986 179.64,138.812 180.78,139.606 181.92,140.389 183.06,141.128 184.2,141.814 185.34,142.378 186.48,142.862 187.62,143.213 188.76,143.402 189.9,143.44 191.04,143.22 192.18,142.819 193.32,142.25 194.46,141.561 195.6,140.799 196.74,140.022 197.88,139.288 199.02,138.649 200.16,138.113 201.3,137.666 202.44,137.296 203.58,137.21 204.72,137.178 205.86,136.925 207,136.802 208.14,136.924 209.28,137.119 210.42,137.246 211.56,137.409 212.7,137.653 213.84,137.986 214.98,138.409 216.12,138.837 217.26,139.256 218.4,139.674 219.54,140.092 220.68,140.51 221.82,140.927 222.96,141.327 224.1,141.739 225.24,142.154 226.38,142.584 227.52,143.02 228.66,143.455 229.8,143.891 230.94,143.976 232.08,144.061 233.22,144.144 234.36,144.128 235.5,144.066 236.64,144.085 237.78,144.101 238.92,144.064 240.06,143.942 241.2,143.82 242.34,143.542 243.48,142.87 244.62,142.838 245.76,143.134 246.9,143.449 248.04,143.803 249.18,144.4 250.32,144.999 251.46,145.597 252.6,146.225 253.74,146.609 254.88,146.993 256.02,147.625 257.16,148.233 258.3,148.809 259.44,149.453 260.58,150.029 261.72,150.605 262.86,151.182 264,151.745 265.14,152.284 266.28,152.824 267.42,153.364 268.56,153.905 269.7,154.38 270.84,154.838 271.98,155.296 273.12,155.756 274.26,156.172 275.4,156.565 276.54,156.622 277.68,156.676 278.82,156.707 279.96,156.739 281.1,156.771 282.24,157.049 283.38,157.329 284.52,157.605 285.66,157.881 286.8,158.158 287.94,158.499 289.08,158.84 290.22,159.182 291.36,159.523 292.5,159.861 293.64,160.19 294.78,160.52 295.92,160.85 297.06,161.181 298.2,161.512 299.34,161.499 300.48,161.466 301.62,161.433 302.76,161.399 303.9,161.366 305.04,161.613 306.18,161.878 307.32,162.149 308.46,162.421 309.6,162.692 310.74,163.001 311.88,163.311 313.02,163.62 314.16,163.931 315.3,164.243 316.44,164.532 317.58,164.821 318.72,165.111 319.86,165.405 321,165.698 " />
<polyline fill="none" vector-effect="none" points="93,113.063 94.14,111.17 95.28,109.329 96.42,107.614 97.56,105.893 98.7,103.899 99.84,102.315 100.98,101.091 102.12,99.883 103.26,98.6537 104.4,97.4283 105.54,96.6339 106.68,95.872 107.82,95.1607 108.96,94.5081 110.1,93.9199 111.24,93.9388 112.38,94.2762 113.52,94.7408 114.66,95.0754 115.8,95.405 116.94,96.2109 118.08,97.0215 119.22,97.8198 120.36,98.5723 121.5,99.2529 122.64,100.333 123.78,101.322 124.92,102.241 126.06,103.11 127.2,103.901 128.34,104.713 129.48,105.438 130.62,106.072 131.76,106.66 132.9,107.226 134.04,107.881 135.18,108.498 136.32,109.094 137.46,109.686 138.6,110.246 139.74,110.877 140.88,111.506 142.02,112.108 143.16,112.685 144.3,113.247 145.44,114.065 146.58,114.854 147.72,115.615 148.86,116.347 150,117.056 151.14,117.711 152.28,118.357 153.42,119.002 154.56,119.648 155.7,120.287 156.84,120.99 157.98,121.784 159.12,122.604 160.26,123.403 161.4,124.255 162.54,125.218 163.68,126.181 164.82,127.24 165.96,128.381 167.1,129.557 168.24,130.788 169.38,132.026 170.52,133.256 171.66,134.459 172.8,135.634 173.94,136.716 175.08,137.764 176.22,138.781 177.36,139.762 178.5,140.716 179.64,141.583 180.78,142.415 181.92,143.235 183.06,144.008 184.2,144.723 185.34,145.308 186.48,145.806 187.62,146.16 188.76,146.338 189.9,146.352 191.04,146.09 192.18,145.63 193.32,144.989 194.46,144.217 195.6,143.366 196.74,142.5 197.88,141.68 199.02,140.963 200.16,140.358 201.3,139.849 202.44,139.426 203.58,139.311 204.72,139.254 205.86,138.958 207,138.803 208.14,138.914 209.28,139.104 210.42,139.219 211.56,139.375 212.7,139.618 213.84,139.959 214.98,140.403 216.12,140.865 217.26,141.315 218.4,141.766 219.54,142.217 220.68,142.669 221.82,143.118 222.96,143.566 224.1,144.029 225.24,144.496 226.38,144.98 227.52,145.47 228.66,145.959 229.8,146.449 230.94,146.629 232.08,146.808 233.22,146.985 234.36,147.124 235.5,147.249 236.64,147.473 237.78,147.701 238.92,147.909 240.06,148.082 241.2,148.256 242.34,148.394 243.48,148.371 244.62,148.61 245.76,148.986 246.9,149.373 248.04,149.781 249.18,150.293 250.32,150.807 251.46,151.32 252.6,151.846 253.74,152.083 254.88,152.321 256.02,152.66 257.16,152.989 258.3,153.306 259.44,153.759 260.58,154.185 261.72,154.612 262.86,155.038 264,155.459 265.14,155.914 266.28,156.369 267.42,156.825 268.56,157.281 269.7,157.71 270.84,158.129 271.98,158.549 273.12,158.97 274.26,159.374 275.4,159.77 276.54,159.801 277.68,159.831 278.82,159.852 279.96,159.874 281.1,159.895 282.24,160.184 283.38,160.473 284.52,160.762 285.66,161.05 286.8,161.339 287.94,161.699 289.08,162.059 290.22,162.419 291.36,162.779 292.5,163.138 293.64,163.495 294.78,163.852 295.92,164.209 297.06,164.567 298.2,164.926 299.34,164.91 300.48,164.888 301.62,164.864 302.76,164.841 303.9,164.818 305.04,165.098 306.18,165.386 307.32,165.677 308.46,165.968 309.6,166.259 310.74,166.593 311.88,166.926 313.02,167.259 314.16,167.593 315.3,167.927 316.44,168.237 317.58,168.547 318.72,168.857 319.86,169.169 321,169.481 " />
<polyline fill="none" vector-effect="none" points="93,111.948 94.14,110.17 95.28,108.439 96.42,106.822 97.56,105.201 98.7,103.329 99.84,101.841 100.98,100.683 102.12,99.5396 103.26,98.3767 104.4,97.2173 105.54,96.464 106.68,95.7405 107.82,95.0634 108.96,94.4402 110.1,93.8758 111.24,93.8812 112.38,94.1784 113.52,94.5921 114.66,94.8868 115.8,95.177 116.94,95.9142 118.08,96.6559 119.22,97.3863 120.36,98.0748 121.5,98.6974 122.64,99.6972 123.78,100.614 124.92,101.467 126.06,102.274 127.2,103.009 128.34,103.766 129.48,104.444 130.62,105.038 131.76,105.589 132.9,106.121 134.04,106.738 135.18,107.319 136.32,107.882 137.46,108.441 138.6,108.971 139.74,109.568 140.88,110.163 142.02,110.734 143.16,111.282 144.3,111.816 145.44,112.591 146.58,113.34 147.72,114.062 148.86,114.759 150,115.435 151.14,116.06 152.28,116.677 153.42,117.292 154.56,117.91 155.7,118.52 156.84,119.19 157.98,119.943 159.12,120.72 160.26,121.478 161.4,122.285 162.54,123.194 163.68,124.103 164.82,125.1 165.96,126.173 167.1,127.277 168.24,128.433 169.38,129.595 170.52,130.749 171.66,131.879 172.8,132.984 173.94,134.001 175.08,134.988 176.22,135.946 177.36,136.872 178.5,137.772 179.64,138.592 180.78,139.38 181.92,140.157 183.06,140.89 184.2,141.571 185.34,142.131 186.48,142.611 187.62,142.96 188.76,143.147 189.9,143.184 191.04,142.966 192.18,142.566 193.32,142.002 194.46,141.317 195.6,140.56 196.74,139.789 197.88,139.06 199.02,138.425 200.16,137.893 201.3,137.449 202.44,137.081 203.58,136.996 204.72,136.964 205.86,136.712 207,136.591 208.14,136.712 209.28,136.906 210.42,137.031 211.56,137.194 212.7,137.436 213.84,137.767 214.98,138.188 216.12,138.619 217.26,139.039 218.4,139.46 219.54,139.88 220.68,140.3 221.82,140.719 222.96,141.126 224.1,141.545 225.24,141.967 226.38,142.405 227.52,142.848 228.66,143.29 229.8,143.733 230.94,143.848 232.08,143.963 233.22,144.075 234.36,144.109 235.5,144.107 236.64,144.189 237.78,144.27 238.92,144.309 240.06,144.28 241.2,144.251 242.34,144.105 243.48,143.644 244.62,143.695 245.76,144.009 246.9,144.34 248.04,144.702 249.18,145.261 250.32,145.822 251.46,146.383 252.6,146.966 253.74,147.301 254.88,147.636 256.02,148.169 257.16,148.683 258.3,149.173 259.44,149.747 260.58,150.266 261.72,150.786 262.86,151.307 264,151.816 265.14,152.319 266.28,152.822 267.42,153.326 268.56,153.83 269.7,154.282 270.84,154.719 271.98,155.156 273.12,155.594 274.26,155.999 275.4,156.384 276.54,156.436 277.68,156.486 278.82,156.518 279.96,156.549 281.1,156.581 282.24,156.859 283.38,157.136 284.52,157.412 285.66,157.687 286.8,157.963 287.94,158.303 289.08,158.643 290.22,158.983 291.36,159.324 292.5,159.661 293.64,159.992 294.78,160.324 295.92,160.655 297.06,160.988 298.2,161.32 299.34,161.311 300.48,161.286 301.62,161.261 302.76,161.235 303.9,161.21 305.04,161.463 306.18,161.731 307.32,162.003 308.46,162.276 309.6,162.549 310.74,162.859 311.88,163.17 313.02,163.481 314.16,163.793 315.3,164.105 316.44,164.395 317.58,164.686 318.72,164.976 319.86,165.27 321,165.564 " />
</g>

<g fill="none" stroke="#b3b3b3" stroke-opacity="1" stroke-width="2.66667" stroke-linecap="butt" stroke-linejoin="round" transform="matrix(0.75,0,0,0.75,0,0)"
font-family="Georgia" font-size="22" font-weight="700" font-style="normal" 
>
<polyline fill="none" vector-effect="none" points="93,107.059 94.14,106.134 95.28,105.21 96.42,104.417 97.56,103.625 98.7,102.92 99.84,102.216 100.98,101.643 102.12,101.071 103.26,100.543 104.4,100.014 105.54,99.794 106.68,99.5739 107.82,99.3978 108.96,99.2216 110.1,99.1336 111.24,99.0455 112.38,99.0896 113.52,99.1336 114.66,99.4418 115.8,99.75 116.94,100.234 118.08,100.719 119.22,101.291 120.36,101.863 121.5,102.48 122.64,103.096 123.78,103.757 124.92,104.417 126.06,105.078 127.2,105.738 128.34,106.311 129.48,106.883 130.62,107.495 131.76,108.107 132.9,108.732 134.04,109.357 135.18,109.903 136.32,110.449 137.46,110.89 138.6,111.33 139.74,111.709 140.88,112.087 142.02,112.558 143.16,113.03 144.3,113.487 145.44,113.945 146.58,114.452 147.72,114.958 148.86,115.394 150,115.83 151.14,116.151 152.28,116.473 153.42,116.816 154.56,117.16 155.7,117.617 156.84,118.075 157.98,118.599 159.12,119.123 160.26,119.828 161.4,120.532 162.54,121.188 163.68,121.844 164.82,122.562 165.96,123.28 167.1,124.077 168.24,124.874 169.38,125.732 170.52,126.591 171.66,127.564 172.8,128.537 173.94,129.448 175.08,130.36 176.22,131.174 177.36,131.989 178.5,132.715 179.64,133.442 180.78,134.067 181.92,134.692 183.06,135.265 184.2,135.837 185.34,136.273 186.48,136.709 187.62,136.947 188.76,137.184 189.9,137.184 191.04,137.184 192.18,137 193.32,136.815 194.46,136.542 195.6,136.269 196.74,135.916 197.88,135.564 199.02,135.238 200.16,134.913 201.3,134.67 202.44,134.428 203.58,134.168 204.72,133.909 205.86,133.75 207,133.592 208.14,133.565 209.28,133.539 210.42,133.57 211.56,133.6 212.7,133.719 213.84,133.838 214.98,134.005 216.12,134.173 217.26,134.419 218.4,134.666 219.54,134.983 220.68,135.3 221.82,135.551 222.96,135.802 224.1,136.115 225.24,136.427 226.38,136.705 227.52,136.982 228.66,137.286 229.8,137.59 230.94,137.999 232.08,138.409 233.22,138.677 234.36,138.946 235.5,139.166 236.64,139.386 237.78,139.553 238.92,139.721 240.06,139.787 241.2,139.853 242.34,139.879 243.48,139.906 244.62,139.998 245.76,140.09 246.9,140.416 248.04,140.742 249.18,141.455 250.32,142.169 251.46,143.252 252.6,144.335 253.74,145.581 254.88,146.827 256.02,147.831 257.16,148.835 258.3,149.711 259.44,150.587 260.58,151.375 261.72,152.164 262.86,152.96 264,153.757 265.14,154.462 266.28,155.166 267.42,155.752 268.56,156.338 269.7,156.923 270.84,157.509 271.98,158.042 273.12,158.574 274.26,159.107 275.4,159.64 276.54,160.049 277.68,160.459 278.82,160.745 279.96,161.031 281.1,161.361 282.24,161.692 283.38,161.995 284.52,162.299 285.66,162.625 286.8,162.951 287.94,163.25 289.08,163.55 290.22,163.854 291.36,164.157 292.5,164.527 293.64,164.897 294.78,165.346 295.92,165.795 297.06,166.187 298.2,166.579 299.34,167.015 300.48,167.451 301.62,167.852 302.76,168.252 303.9,168.706 305.04,169.159 306.18,169.511 307.32,169.864 308.46,170.203 309.6,170.542 310.74,170.89 311.88,171.237 313.02,171.59 314.16,171.942 315.3,172.18 316.44,172.417 317.58,172.611 318.72,172.805 319.86,173.007 321,173.21 " />
<polyline fill="none" vector-effect="none" points="93,105.724 94.14,104.83 95.28,103.937 96.42,103.128 97.56,102.318 98.7,101.676 99.84,101.034 100.98,100.532 102.12,100.029 103.26,99.5546 104.4,99.08 105.54,98.9405 106.68,98.8009 107.82,98.7172 108.96,98.6334 110.1,98.6613 111.24,98.6892 112.38,98.8009 113.52,98.9126 114.66,99.3313 115.8,99.75 116.94,100.308 118.08,100.867 119.22,101.537 120.36,102.206 121.5,102.96 122.64,103.714 123.78,104.496 124.92,105.277 126.06,106.031 127.2,106.785 128.34,107.427 129.48,108.069 130.62,108.766 131.76,109.464 132.9,110.218 134.04,110.972 135.18,111.586 136.32,112.2 137.46,112.702 138.6,113.205 139.74,113.624 140.88,114.042 142.02,114.601 143.16,115.159 144.3,115.661 145.44,116.164 146.58,116.722 147.72,117.28 148.86,117.727 150,118.174 151.14,118.537 152.28,118.9 153.42,119.29 154.56,119.681 155.7,120.156 156.84,120.63 157.98,121.161 159.12,121.691 160.26,122.389 161.4,123.087 162.54,123.757 163.68,124.427 164.82,125.124 165.96,125.822 167.1,126.576 168.24,127.33 169.38,128.167 170.52,129.005 171.66,129.954 172.8,130.903 173.94,131.824 175.08,132.745 176.22,133.555 177.36,134.364 178.5,135.062 179.64,135.76 180.78,136.374 181.92,136.988 183.06,137.547 184.2,138.105 185.34,138.524 186.48,138.942 187.62,139.138 188.76,139.333 189.9,139.333 191.04,139.333 192.18,139.194 193.32,139.054 194.46,138.859 195.6,138.663 196.74,138.412 197.88,138.161 199.02,137.937 200.16,137.714 201.3,137.574 202.44,137.435 203.58,137.267 204.72,137.1 205.86,136.988 207,136.877 208.14,136.849 209.28,136.821 210.42,136.877 211.56,136.932 212.7,137.044 213.84,137.156 214.98,137.323 216.12,137.491 217.26,137.714 218.4,137.937 219.54,138.244 220.68,138.551 221.82,138.859 222.96,139.166 224.1,139.501 225.24,139.836 226.38,140.148 227.52,140.461 228.66,140.827 229.8,141.192 230.94,141.684 232.08,142.175 233.22,142.568 234.36,142.962 235.5,143.319 236.64,143.677 237.78,143.998 238.92,144.319 240.06,144.637 241.2,144.955 242.34,145.254 243.48,145.552 244.62,145.871 245.76,146.189 246.9,146.608 248.04,147.026 249.18,147.666 250.32,148.305 251.46,149.148 252.6,149.991 253.74,150.918 254.88,151.844 256.02,152.609 257.16,153.374 258.3,154.064 259.44,154.753 260.58,155.37 261.72,155.987 262.86,156.66 264,157.333 265.14,157.924 266.28,158.516 267.42,159.041 268.56,159.566 269.7,160.085 270.84,160.604 271.98,161.118 273.12,161.631 274.26,162.131 275.4,162.631 276.54,163.013 277.68,163.396 278.82,163.717 279.96,164.038 281.1,164.375 282.24,164.713 283.38,165.045 284.52,165.378 285.66,165.673 286.8,165.969 287.94,166.293 289.08,166.617 290.22,166.946 291.36,167.276 292.5,167.661 293.64,168.046 294.78,168.457 295.92,168.867 297.06,169.227 298.2,169.587 299.34,169.961 300.48,170.335 301.62,170.706 302.76,171.078 303.9,171.446 305.04,171.815 306.18,172.144 307.32,172.473 308.46,172.781 309.6,173.088 310.74,173.42 311.88,173.752 313.02,174.076 314.16,174.4 315.3,174.612 316.44,174.824 317.58,174.977 318.72,175.131 319.86,175.254 321,175.377 " />
<polyline fill="none" vector-effect="none" points="93,107.822 94.14,106.84 95.28,105.858 96.42,105.051 97.56,104.244 98.7,103.459 99.84,102.673 100.98,102.019 102.12,101.364 103.26,100.863 104.4,100.361 105.54,100.099 106.68,99.8373 107.82,99.5318 108.96,99.2264 110.1,99.1828 111.24,99.1392 112.38,99.1392 113.52,99.1392 114.66,99.4446 115.8,99.75 116.94,100.23 118.08,100.71 119.22,101.277 120.36,101.844 121.5,102.477 122.64,103.11 123.78,103.808 124.92,104.506 126.06,105.204 127.2,105.902 128.34,106.447 129.48,106.993 130.62,107.647 131.76,108.302 132.9,108.956 134.04,109.611 135.18,110.091 136.32,110.57 137.46,110.985 138.6,111.399 139.74,111.814 140.88,112.228 142.02,112.665 143.16,113.101 144.3,113.537 145.44,113.974 146.58,114.475 147.72,114.977 148.86,115.392 150,115.806 151.14,116.155 152.28,116.504 153.42,116.788 154.56,117.072 155.7,117.464 156.84,117.857 157.98,118.446 159.12,119.035 160.26,119.711 161.4,120.387 162.54,121.02 163.68,121.653 164.82,122.373 165.96,123.093 167.1,123.9 168.24,124.707 169.38,125.558 170.52,126.409 171.66,127.39 172.8,128.372 173.94,129.223 175.08,130.074 176.22,130.903 177.36,131.732 178.5,132.495 179.64,133.259 180.78,133.869 181.92,134.48 183.06,135.004 184.2,135.527 185.34,135.964 186.48,136.4 187.62,136.575 188.76,136.749 189.9,136.684 191.04,136.618 192.18,136.4 193.32,136.182 194.46,135.876 195.6,135.571 196.74,135.178 197.88,134.786 199.02,134.458 200.16,134.131 201.3,133.848 202.44,133.564 203.58,133.28 204.72,132.997 205.86,132.822 207,132.648 208.14,132.67 209.28,132.691 210.42,132.67 211.56,132.648 212.7,132.866 213.84,133.084 214.98,133.28 216.12,133.477 217.26,133.804 218.4,134.131 219.54,134.458 220.68,134.786 221.82,135.026 222.96,135.266 224.1,135.593 225.24,135.92 226.38,136.247 227.52,136.575 228.66,136.858 229.8,137.142 230.94,137.709 232.08,138.276 233.22,138.56 234.36,138.843 235.5,139.149 236.64,139.454 237.78,139.629 238.92,139.803 240.06,139.956 241.2,140.109 242.34,140.283 243.48,140.458 244.62,140.632 245.76,140.807 246.9,141.09 248.04,141.374 249.18,142.159 250.32,142.945 251.46,144.014 252.6,145.083 253.74,146.217 254.88,147.351 256.02,148.202 257.16,149.053 258.3,150.035 259.44,151.016 260.58,151.763 261.72,152.509 262.86,153.368 264,154.228 265.14,154.852 266.28,155.476 267.42,156.041 268.56,156.606 269.7,157.179 270.84,157.753 271.98,158.327 273.12,158.901 274.26,159.45 275.4,160 276.54,160.415 277.68,160.829 278.82,161.084 279.96,161.34 281.1,161.684 282.24,162.029 283.38,162.282 284.52,162.535 285.66,162.869 286.8,163.203 287.94,163.545 289.08,163.888 290.22,164.11 291.36,164.333 292.5,164.66 293.64,164.987 294.78,165.489 295.92,165.991 297.06,166.281 298.2,166.571 299.34,167.007 300.48,167.444 301.62,167.797 302.76,168.15 303.9,168.626 305.04,169.101 306.18,169.477 307.32,169.852 308.46,170.16 309.6,170.467 310.74,170.829 311.88,171.191 313.02,171.534 314.16,171.876 315.3,172.095 316.44,172.313 317.58,172.446 318.72,172.579 319.86,172.773 321,172.967 " />
</g>

<g fill="#ffffff" fill-opacity="1" stroke="none" transform="matrix(7.5e-05,0,0,7.5e-05,0,0)"
font-family="Georgia" font-size="22" font-weight="700" font-style="normal" 
>
<path vector-effect="none" fill-rule="evenodd" d="M4.21e+06,420000 L4.21e+06,1.96e+06 L6.49e+06,1.96e+06 L6.49e+06,420000 L4.21e+06,420000"/>
</g>

<g fill="#212121" fill-opacity="0.14902" stroke="#212121" stroke-opacity="0.14902" stroke-width="1.6" stroke-linecap="butt" stroke-linejoin="round" transform="matrix(0.75,0,0,0.75,0,0)"
font-family="Georgia" font-size="22" font-weight="700" font-style="normal" 
>
<polyline fill="none" vector-effect="none" points="421,42 421,196 " />
<polyline fill="none" vector-effect="none" points="535,42 535,196 " />
<polyline fill="none" vector-effect="none" points="649,42 649,196 " />
<polyline fill="none" vector-effect="none" points="421,196 649,196 " />
<polyline fill="none" vector-effect="none" points="421,147.875 649,147.875 " />
<polyline fill="none" vector-effect="none" points="421,99.75 649,99.75 " />
<polyline fill="none" vector-effect="none" points="421,51.625 649,51.625 " />
</g>

<g fill="#4d4d4d" fill-opacity="1" stroke="#4d4d4d" stroke-opacity="1" stroke-width="1" stroke-linecap="square" stroke-linejoin="bevel" transform="matrix(0.75,0,0,0.75,337.5,185.631)"
font-family="Georgia" font-size="22" font-weight="400" font-style="normal" 
>
<text fill="#4d4d4d" fill-opacity="1" stroke="none" xml:space="preserve" x="0" y="0.171875" font-family="Georgia" font-size="22" font-weight="400" font-style="normal" 
 >Wavelength (nm)</text>
</g>

<g fill="#4d4d4d" fill-opacity="1" stroke="#4d4d4d" stroke-opacity="1" stroke-width="1.6" stroke-linecap="square" stroke-linejoin="round" transform="matrix(0.75,0,0,0.75,0,0)"
font-family="Georgia" font-size="22" font-weight="400" font-style="normal" 
>
<polyline fill="none" vector-effect="none" points="421,196 649,196 " />
<polyline fill="none" vector-effect="none" points="421,42 649,42 " />
<polyline fill="none" vector-effect="none" points="421,196 421,193.72 " />
<polyline fill="none" vector-effect="none" points="421,44.28 421,42 " />
<polyline fill="none" vector-effect="none" points="535,196 535,193.72 " />
<polyline fill="none" vector-effect="none" points="535,44.28 535,42 " />
<polyline fill="none" vector-effect="none" points="649,196 649,193.72 " />
<polyline fill="none" vector-effect="none" points="649,44.28 649,42 " />
</g>

<g fill="#4d4d4d" fill-opacity="1" stroke="#4d4d4d" stroke-opacity="1" stroke-width="1" stroke-linecap="square" stroke-linejoin="bevel" transform="matrix(0.75,0,0,0.75,302.625,165.287)"
font-family="Georgia" font-size="20" font-weight="400" font-style="normal" 
>
<text fill="#4d4d4d" fill-opacity="1" stroke="none" xml:space="preserve" x="0" y="0.328125" font-family="Georgia" font-size="20" font-weight="400" font-style="normal" 
 >500</text>
</g>

<g fill="#4d4d4d" fill-opacity="1" stroke="#4d4d4d" stroke-opacity="1" stroke-width="1" stroke-linecap="square" stroke-linejoin="bevel" transform="matrix(0.75,0,0,0.75,387.75,165.287)"
font-family="Georgia" font-size="20" font-weight="400" font-style="normal" 
>
<text fill="#4d4d4d" fill-opacity="1" stroke="none" xml:space="preserve" x="0" y="0.328125" font-family="Georgia" font-size="20" font-weight="400" font-style="normal" 
 >600</text>
</g>

<g fill="#4d4d4d" fill-opacity="1" stroke="#4d4d4d" stroke-opacity="1" stroke-width="1" stroke-linecap="square" stroke-linejoin="bevel" transform="matrix(0.75,0,0,0.75,473.625,165.287)"
font-family="Georgia" font-size="20" font-weight="400" font-style="normal" 
>
<text fill="#4d4d4d" fill-opacity="1" stroke="none" xml:space="preserve" x="0" y="0.328125" font-family="Georgia" font-size="20" font-weight="400" font-style="normal" 
 >700</text>
</g>

<g fill="#4d4d4d" fill-opacity="1" stroke="#4d4d4d" stroke-opacity="1" stroke-width="1" stroke-linecap="square" stroke-linejoin="bevel" transform="matrix(0,-0.75,0.75,0,281.275,165.375)"
font-family="Georgia" font-size="22" font-weight="400" font-style="normal" 
>
<text fill="#4d4d4d" fill-opacity="1" stroke="none" xml:space="preserve" x="0" y="0.171875" font-family="Georgia" font-size="22" font-weight="400" font-style="normal" 
 >Normalized radiance</text>
</g>

<g fill="#4d4d4d" fill-opacity="1" stroke="#4d4d4d" stroke-opacity="1" stroke-width="1.6" stroke-linecap="square" stroke-linejoin="round" transform="matrix(0.75,0,0,0.75,0,0)"
font-family="Georgia" font-size="22" font-weight="400" font-style="normal" 
>
<polyline fill="none" vector-effect="none" points="421,196 421,42 " />
<polyline fill="none" vector-effect="none" points="649,196 649,42 " />
<polyline fill="none" vector-effect="none" points="421,196 423.28,196 " />
<polyline fill="none" vector-effect="none" points="646.72,196 649,196 " />
<polyline fill="none" vector-effect="none" points="421,147.875 423.28,147.875 " />
<polyline fill="none" vector-effect="none" points="646.72,147.875 649,147.875 " />
<polyline fill="none" vector-effect="none" points="421,99.75 423.28,99.75 " />
<polyline fill="none" vector-effect="none" points="646.72,99.75 649,99.75 " />
<polyline fill="none" vector-effect="none" points="421,51.625 423.28,51.625 " />
<polyline fill="none" vector-effect="none" points="646.72,51.625 649,51.625 " />
</g>

<g fill="#4d4d4d" fill-opacity="1" stroke="#4d4d4d" stroke-opacity="1" stroke-width="1" stroke-linecap="square" stroke-linejoin="bevel" transform="matrix(0.75,0,0,0.75,301.962,152.25)"
font-family="Georgia" font-size="20" font-weight="400" font-style="normal" 
>
<text fill="#4d4d4d" fill-opacity="1" stroke="none" xml:space="preserve" x="0" y="0.328125" font-family="Georgia" font-size="20" font-weight="400" font-style="normal" 
 >0</text>
</g>

<g fill="#4d4d4d" fill-opacity="1" stroke="#4d4d4d" stroke-opacity="1" stroke-width="1" stroke-linecap="square" stroke-linejoin="bevel" transform="matrix(0.75,0,0,0.75,289.962,116.156)"
font-family="Georgia" font-size="20" font-weight="400" font-style="normal" 
>
<text fill="#4d4d4d" fill-opacity="1" stroke="none" xml:space="preserve" x="0" y="0.328125" font-family="Georgia" font-size="20" font-weight="400" font-style="normal" 
 >0.5</text>
</g>

<g fill="#4d4d4d" fill-opacity="1" stroke="#4d4d4d" stroke-opacity="1" stroke-width="1" stroke-linecap="square" stroke-linejoin="bevel" transform="matrix(0.75,0,0,0.75,304.212,80.0625)"
font-family="Georgia" font-size="20" font-weight="400" font-style="normal" 
>
<text fill="#4d4d4d" fill-opacity="1" stroke="none" xml:space="preserve" x="0" y="0.328125" font-family="Georgia" font-size="20" font-weight="400" font-style="normal" 
 >1</text>
</g>

<g fill="#4d4d4d" fill-opacity="1" stroke="#4d4d4d" stroke-opacity="1" stroke-width="1" stroke-linecap="square" stroke-linejoin="bevel" transform="matrix(0.75,0,0,0.75,292.212,43.9688)"
font-family="Georgia" font-size="20" font-weight="400" font-style="normal" 
>
<text fill="#4d4d4d" fill-opacity="1" stroke="none" xml:space="preserve" x="0" y="0.328125" font-family="Georgia" font-size="20" font-weight="400" font-style="normal" 
 >1.5</text>
</g>

<g fill="#4d4d4d" fill-opacity="1" stroke="#4d4d4d" stroke-opacity="1" stroke-width="1" stroke-linecap="square" stroke-linejoin="bevel" transform="matrix(0.75,0,0,0.75,306.75,24.5531)"
font-family="Georgia" font-size="22" font-weight="700" font-style="normal" 
>
<text fill="#4d4d4d" fill-opacity="1" stroke="none" xml:space="preserve" x="0" y="0.171875" font-family="Georgia" font-size="22" font-weight="700" font-style="normal" 
 >Subject 2:  rmse 0.024</text>
</g>

<g fill="none" stroke="#000000" stroke-opacity="1" stroke-dasharray="8,8" stroke-dashoffset="0" stroke-width="2.66667" stroke-linecap="butt" stroke-linejoin="round" transform="matrix(0.75,0,0,0.75,0,0)"
font-family="Georgia" font-size="22" font-weight="700" font-style="normal" 
>
<polyline fill="none" vector-effect="none" points="421,108.026 422.14,106.579 423.28,105.195 424.42,103.965 425.56,102.73 426.7,101.156 427.84,99.9462 428.98,99.1814 430.12,98.4354 431.26,97.6635 432.4,96.8963 433.54,96.4559 434.68,96.0557 435.82,95.7179 436.96,95.4527 438.1,95.2667 439.24,95.5827 440.38,96.2909 441.52,97.1544 442.66,97.8565 443.8,98.5512 444.94,99.6333 446.08,100.719 447.22,101.788 448.36,102.798 449.5,103.718 450.64,104.921 451.78,106.013 452.92,107.018 454.06,107.96 455.2,108.807 456.34,109.637 457.48,110.362 458.62,110.978 459.76,111.539 460.9,112.073 462.04,112.666 463.18,113.212 464.32,113.734 465.46,114.253 466.6,114.733 467.74,115.256 468.88,115.778 470.02,116.269 471.16,116.731 472.3,117.175 473.44,117.816 474.58,118.424 475.72,118.998 476.86,119.538 478,120.049 479.14,120.512 480.28,120.964 481.42,121.412 482.56,121.863 483.7,122.303 484.84,122.811 485.98,123.427 487.12,124.075 488.26,124.698 489.4,125.384 490.54,126.185 491.68,126.987 492.82,127.905 493.96,128.923 495.1,129.981 496.24,131.096 497.38,132.218 498.52,133.328 499.66,134.407 500.8,135.451 501.94,136.408 503.08,137.324 504.22,138.203 505.36,139.04 506.5,139.845 507.64,140.568 508.78,141.251 509.92,141.92 511.06,142.534 512.2,143.08 513.34,143.502 514.48,143.82 515.62,143.965 516.76,143.894 517.9,143.62 519.04,143.036 520.18,142.202 521.32,141.137 522.46,139.9 523.6,138.557 524.74,137.196 525.88,135.885 527.02,134.699 528.16,133.649 529.3,132.718 530.44,131.935 531.58,131.541 532.72,131.221 533.86,130.594 535,130.146 536.14,130.052 537.28,130.057 538.42,129.967 539.56,129.929 540.7,130.001 541.84,130.22 542.98,130.56 544.12,130.91 545.26,131.246 546.4,131.582 547.54,131.944 548.68,132.308 549.82,132.668 550.96,133.006 552.1,133.36 553.24,133.744 554.38,134.149 555.52,134.561 556.66,134.973 557.8,135.385 558.94,135.333 560.08,135.282 561.22,135.227 562.36,135.034 563.5,134.777 564.64,134.651 565.78,134.521 566.92,134.317 568.06,133.994 569.2,133.671 570.34,133.147 571.48,132.073 572.62,131.891 573.76,132.165 574.9,132.466 576.04,132.84 577.18,133.552 578.32,134.267 579.46,134.981 580.6,135.734 581.74,136.166 582.88,136.596 584.02,137.371 585.16,138.109 586.3,138.802 587.44,139.593 588.58,140.286 589.72,140.973 590.86,141.656 592,142.313 593.14,142.938 594.28,143.556 595.42,144.164 596.56,144.763 597.7,145.259 598.84,145.73 599.98,146.192 601.12,146.645 602.26,147.029 603.4,147.376 604.54,147.276 605.68,147.168 606.82,147.032 607.96,146.886 609.1,146.742 610.24,146.923 611.38,147.109 612.52,147.285 613.66,147.474 614.8,147.666 615.94,147.971 617.08,148.288 618.22,148.61 619.36,148.947 620.5,149.299 621.64,149.663 622.78,150.046 623.92,150.449 625.06,150.877 626.2,151.331 627.34,151.343 628.48,151.357 629.62,151.386 630.76,151.43 631.9,151.484 633.04,151.919 634.18,152.378 635.32,152.855 636.46,153.324 637.6,153.795 638.74,154.323 639.88,154.848 641.02,155.35 642.16,155.849 643.3,156.334 644.44,156.788 645.58,157.229 646.72,157.662 647.86,158.093 649,158.514 " />
<polyline fill="none" vector-effect="none" points="421,107.863 422.14,106.436 423.28,105.072 424.42,103.861 425.56,102.644 426.7,101.093 427.84,99.8999 428.98,99.1473 430.12,98.4131 431.26,97.6534 432.4,96.8984 433.54,96.4657 434.68,96.0725 435.82,95.7412 436.96,95.4815 438.1,95.3 439.24,95.6138 440.38,96.3149 441.52,97.1695 442.66,97.8647 443.8,98.5525 444.94,99.6225 446.08,100.696 447.22,101.753 448.36,102.752 449.5,103.662 450.64,104.851 451.78,105.93 452.92,106.923 454.06,107.855 455.2,108.692 456.34,109.512 457.48,110.229 458.62,110.838 459.76,111.392 460.9,111.921 462.04,112.506 463.18,113.046 464.32,113.562 465.46,114.075 466.6,114.549 467.74,115.067 468.88,115.583 470.02,116.068 471.16,116.524 472.3,116.963 473.44,117.597 474.58,118.197 475.72,118.764 476.86,119.297 478,119.802 479.14,120.259 480.28,120.706 481.42,121.149 482.56,121.594 483.7,122.029 484.84,122.53 485.98,123.139 487.12,123.78 488.26,124.395 489.4,125.073 490.54,125.864 491.68,126.657 492.82,127.563 493.96,128.569 495.1,129.614 496.24,130.715 497.38,131.824 498.52,132.921 499.66,133.986 500.8,135.017 501.94,135.963 503.08,136.868 504.22,137.737 505.36,138.564 506.5,139.359 507.64,140.074 508.78,140.749 509.92,141.41 511.06,142.016 512.2,142.556 513.34,142.973 514.48,143.288 515.62,143.431 516.76,143.362 517.9,143.092 519.04,142.515 520.18,141.692 521.32,140.64 522.46,139.419 523.6,138.093 524.74,136.749 525.88,135.455 527.02,134.284 528.16,133.247 529.3,132.327 530.44,131.555 531.58,131.167 532.72,130.851 533.86,130.233 535,129.791 536.14,129.698 537.28,129.704 538.42,129.617 539.56,129.58 540.7,129.652 541.84,129.869 542.98,130.207 544.12,130.557 545.26,130.892 546.4,131.227 547.54,131.589 548.68,131.952 549.82,132.312 550.96,132.653 552.1,133.009 553.24,133.395 554.38,133.802 555.52,134.217 556.66,134.63 557.8,135.044 558.94,135.012 560.08,134.98 561.22,134.944 562.36,134.784 563.5,134.566 564.64,134.48 565.78,134.391 566.92,134.235 568.06,133.971 569.2,133.708 570.34,133.268 571.48,132.329 572.62,132.2 573.76,132.484 574.9,132.793 576.04,133.17 577.18,133.856 578.32,134.543 579.46,135.23 580.6,135.953 581.74,136.354 582.88,136.754 584.02,137.467 585.16,138.146 586.3,138.785 587.44,139.532 588.58,140.19 589.72,140.844 590.86,141.495 592,142.123 593.14,142.73 594.28,143.332 595.42,143.925 596.56,144.512 597.7,145.007 598.84,145.48 599.98,145.946 601.12,146.406 602.26,146.803 603.4,147.168 604.54,147.092 605.68,147.008 606.82,146.9 607.96,146.783 609.1,146.667 610.24,146.874 611.38,147.085 612.52,147.288 613.66,147.5 614.8,147.716 615.94,148.042 617.08,148.376 618.22,148.715 619.36,149.066 620.5,149.429 621.64,149.801 622.78,150.189 623.92,150.593 625.06,151.018 626.2,151.463 627.34,151.468 628.48,151.472 629.62,151.488 630.76,151.516 631.9,151.552 633.04,151.963 634.18,152.396 635.32,152.845 636.46,153.287 637.6,153.73 638.74,154.232 639.88,154.731 641.02,155.211 642.16,155.69 643.3,156.156 644.44,156.594 645.58,157.02 646.72,157.441 647.86,157.86 649,158.271 " />
<polyline fill="none" vector-effect="none" points="421,104.967 422.14,103.597 423.28,102.309 424.42,101.216 425.56,100.116 426.7,98.5858 427.84,97.4415 428.98,96.8623 430.12,96.3068 431.26,95.7184 432.4,95.136 433.54,94.8591 434.68,94.6331 435.82,94.4862 436.96,94.4314 438.1,94.477 439.24,95.0284 440.38,96.0772 441.52,97.3231 442.66,98.3643 443.8,99.3958 444.94,100.814 446.08,102.237 447.22,103.638 448.36,104.964 449.5,106.177 450.64,107.639 451.78,108.958 452.92,110.168 454.06,111.299 455.2,112.307 456.34,113.271 457.48,114.102 458.62,114.794 459.76,115.416 460.9,116.004 462.04,116.638 463.18,117.213 464.32,117.756 465.46,118.295 466.6,118.786 467.74,119.307 468.88,119.826 470.02,120.306 471.16,120.749 472.3,121.169 473.44,121.777 474.58,122.343 475.72,122.864 476.86,123.343 478,123.786 479.14,124.176 480.28,124.552 481.42,124.925 482.56,125.299 483.7,125.661 484.84,126.102 485.98,126.681 487.12,127.301 488.26,127.888 489.4,128.555 490.54,129.359 491.68,130.163 492.82,131.114 493.96,132.191 495.1,133.32 496.24,134.515 497.38,135.719 498.52,136.908 499.66,138.057 500.8,139.162 501.94,140.171 503.08,141.128 504.22,142.038 505.36,142.894 506.5,143.71 507.64,144.434 508.78,145.107 509.92,145.762 511.06,146.347 512.2,146.847 513.34,147.206 514.48,147.434 515.62,147.442 516.76,147.176 517.9,146.653 519.04,145.754 520.18,144.537 521.32,143.027 522.46,141.299 523.6,139.437 524.74,137.556 525.88,135.739 527.02,134.081 528.16,132.594 529.3,131.258 530.44,130.133 531.58,129.5 532.72,128.961 533.86,128.033 535,127.332 536.14,127.084 537.28,126.964 538.42,126.723 539.56,126.547 540.7,126.511 541.84,126.672 542.98,127.004 544.12,127.376 545.26,127.728 546.4,128.082 547.54,128.482 548.68,128.883 549.82,129.281 550.96,129.691 552.1,130.125 553.24,130.61 554.38,131.122 555.52,131.644 556.66,132.163 557.8,132.684 558.94,132.802 560.08,132.918 561.22,133.031 562.36,133.146 563.5,133.273 564.64,133.599 565.78,133.941 566.92,134.286 568.06,134.626 569.2,134.967 570.34,135.402 571.48,135.823 572.62,136.266 573.76,136.726 574.9,137.2 576.04,137.716 577.18,138.253 578.32,138.794 579.46,139.333 580.6,139.874 581.74,139.949 582.88,140.024 584.02,140.106 585.16,140.187 586.3,140.27 587.44,140.645 588.58,141.021 589.72,141.395 590.86,141.768 592,142.138 593.14,142.629 594.28,143.119 595.42,143.605 596.56,144.089 597.7,144.567 598.84,145.052 599.98,145.535 601.12,146.016 602.26,146.495 603.4,146.973 604.54,146.891 605.68,146.808 606.82,146.725 607.96,146.638 609.1,146.552 610.24,146.882 611.38,147.214 612.52,147.546 613.66,147.881 614.8,148.218 615.94,148.696 617.08,149.177 618.22,149.66 619.36,150.148 620.5,150.643 621.64,151.154 622.78,151.671 623.92,152.195 625.06,152.729 626.2,153.27 627.34,153.233 628.48,153.205 629.62,153.182 630.76,153.164 631.9,153.149 633.04,153.604 634.18,154.062 635.32,154.523 636.46,154.982 637.6,155.441 638.74,155.988 639.88,156.534 641.02,157.072 642.16,157.609 643.3,158.142 644.44,158.64 645.58,159.134 646.72,159.626 647.86,160.115 649,160.601 " />
</g>

<g fill="none" stroke="#b3b3b3" stroke-opacity="1" stroke-width="2.66667" stroke-linecap="butt" stroke-linejoin="round" transform="matrix(0.75,0,0,0.75,0,0)"
font-family="Georgia" font-size="22" font-weight="700" font-style="normal" 
>
<polyline fill="none" vector-effect="none" points="421,103.901 422.14,103.067 423.28,102.233 424.42,101.51 425.56,100.788 426.7,100.198 427.84,99.6076 428.98,99.1192 430.12,98.6308 431.26,98.2137 432.4,97.7965 433.54,97.7558 434.68,97.7151 435.82,97.6948 436.96,97.6744 438.1,97.7965 439.24,97.9186 440.38,98.234 441.52,98.5494 442.66,99.1497 443.8,99.75 444.94,100.513 446.08,101.276 447.22,102.161 448.36,103.047 449.5,104.023 450.64,105 451.78,105.967 452.92,106.933 454.06,107.879 455.2,108.826 456.34,109.578 457.48,110.331 458.62,111.156 459.76,111.98 460.9,112.804 462.04,113.628 463.18,114.289 464.32,114.951 465.46,115.5 466.6,116.049 467.74,116.477 468.88,116.904 470.02,117.403 471.16,117.901 472.3,118.379 473.44,118.858 474.58,119.336 475.72,119.814 476.86,120.18 478,120.547 479.14,120.791 480.28,121.035 481.42,121.33 482.56,121.625 483.7,122.063 484.84,122.5 485.98,123.009 487.12,123.517 488.26,124.209 489.4,124.901 490.54,125.593 491.68,126.285 492.82,127.068 493.96,127.852 495.1,128.727 496.24,129.602 497.38,130.568 498.52,131.535 499.66,132.634 500.8,133.733 501.94,134.75 503.08,135.767 504.22,136.622 505.36,137.477 506.5,138.219 507.64,138.962 508.78,139.563 509.92,140.163 511.06,140.621 512.2,141.078 513.34,141.343 514.48,141.608 515.62,141.577 516.76,141.547 517.9,141.241 519.04,140.936 520.18,140.366 521.32,139.797 522.46,139.125 523.6,138.453 524.74,137.568 525.88,136.683 527.02,135.93 528.16,135.177 529.3,134.547 530.44,133.916 531.58,133.295 532.72,132.674 533.86,132.176 535,131.677 536.14,131.331 537.28,130.985 538.42,130.802 539.56,130.619 540.7,130.578 541.84,130.538 542.98,130.568 544.12,130.599 545.26,130.721 546.4,130.843 547.54,131.026 548.68,131.209 549.82,131.382 550.96,131.555 552.1,131.749 553.24,131.942 554.38,132.135 555.52,132.328 556.66,132.501 557.8,132.674 558.94,132.929 560.08,133.183 561.22,133.234 562.36,133.285 563.5,133.305 564.64,133.326 565.78,133.173 566.92,133.02 568.06,132.613 569.2,132.206 570.34,131.565 571.48,130.924 572.62,130.436 573.76,129.948 574.9,129.958 576.04,129.968 577.18,130.741 578.32,131.515 579.46,132.949 580.6,134.384 581.74,136.144 582.88,137.904 584.02,139.328 585.16,140.753 586.3,141.903 587.44,143.052 588.58,143.826 589.72,144.599 590.86,145.382 592,146.166 593.14,146.583 594.28,147 595.42,147.122 596.56,147.244 597.7,147.275 598.84,147.305 599.98,147.102 601.12,146.898 602.26,146.613 603.4,146.328 604.54,146.135 605.68,145.942 606.82,145.637 607.96,145.331 609.1,145.199 610.24,145.067 611.38,144.955 612.52,144.843 613.66,144.894 614.8,144.945 615.94,144.945 617.08,144.945 618.22,145.138 619.36,145.331 620.5,145.769 621.64,146.206 622.78,146.837 623.92,147.468 625.06,148.16 626.2,148.852 627.34,149.747 628.48,150.642 629.62,151.64 630.76,152.637 631.9,153.797 633.04,154.956 634.18,155.933 635.32,156.91 636.46,157.826 637.6,158.741 638.74,159.596 639.88,160.451 641.02,161.142 642.16,161.834 643.3,162.333 644.44,162.831 645.58,163.157 646.72,163.483 647.86,163.757 649,164.032 " />
<polyline fill="none" vector-effect="none" points="421,104.088 422.14,103.244 423.28,102.401 424.42,101.666 425.56,100.931 426.7,100.328 427.84,99.7259 428.98,99.2379 430.12,98.7499 431.26,98.3282 432.4,97.9065 433.54,97.8522 434.68,97.798 435.82,97.792 436.96,97.786 438.1,97.9185 439.24,98.051 440.38,98.3101 441.52,98.5692 442.66,99.1596 443.8,99.75 444.94,100.491 446.08,101.232 447.22,102.1 448.36,102.967 449.5,103.961 450.64,104.955 451.78,105.901 452.92,106.847 454.06,107.799 455.2,108.751 456.34,109.54 457.48,110.329 458.62,111.131 459.76,111.932 460.9,112.733 462.04,113.534 463.18,114.215 464.32,114.896 465.46,115.414 466.6,115.932 467.74,116.342 468.88,116.752 470.02,117.228 471.16,117.703 472.3,118.173 473.44,118.643 474.58,119.095 475.72,119.547 476.86,119.872 478,120.198 479.14,120.451 480.28,120.704 481.42,120.969 482.56,121.234 483.7,121.632 484.84,122.029 485.98,122.535 487.12,123.041 488.26,123.716 489.4,124.391 490.54,125.084 491.68,125.777 492.82,126.56 493.96,127.343 495.1,128.204 496.24,129.066 497.38,130.048 498.52,131.03 499.66,132.139 500.8,133.247 501.94,134.289 503.08,135.332 504.22,136.211 505.36,137.091 506.5,137.844 507.64,138.597 508.78,139.181 509.92,139.766 511.06,140.23 512.2,140.694 513.34,140.947 514.48,141.2 515.62,141.139 516.76,141.079 517.9,140.748 519.04,140.416 520.18,139.826 521.32,139.236 522.46,138.525 523.6,137.814 524.74,136.928 525.88,136.043 527.02,135.253 528.16,134.464 529.3,133.819 530.44,133.175 531.58,132.566 532.72,131.958 533.86,131.47 535,130.982 536.14,130.675 537.28,130.367 538.42,130.211 539.56,130.054 540.7,130.042 541.84,130.03 542.98,130.078 544.12,130.126 545.26,130.235 546.4,130.343 547.54,130.548 548.68,130.753 549.82,130.94 550.96,131.126 552.1,131.337 553.24,131.548 554.38,131.729 555.52,131.91 556.66,132.096 557.8,132.283 558.94,132.53 560.08,132.777 561.22,132.88 562.36,132.982 563.5,133.012 564.64,133.042 565.78,132.898 566.92,132.753 568.06,132.422 569.2,132.09 570.34,131.5 571.48,130.91 572.62,130.542 573.76,130.175 574.9,130.217 576.04,130.259 577.18,131.006 578.32,131.753 579.46,133.187 580.6,134.621 581.74,136.344 582.88,138.067 584.02,139.453 585.16,140.838 586.3,141.941 587.44,143.043 588.58,143.857 589.72,144.67 590.86,145.405 592,146.14 593.14,146.544 594.28,146.947 595.42,147.11 596.56,147.273 597.7,147.303 598.84,147.333 599.98,147.2 601.12,147.068 602.26,146.863 603.4,146.658 604.54,146.453 605.68,146.248 606.82,145.953 607.96,145.658 609.1,145.483 610.24,145.309 611.38,145.17 612.52,145.031 613.66,145.007 614.8,144.983 615.94,144.989 617.08,144.995 618.22,145.128 619.36,145.26 620.5,145.586 621.64,145.911 622.78,146.568 623.92,147.224 625.06,147.953 626.2,148.682 627.34,149.586 628.48,150.49 629.62,151.544 630.76,152.598 631.9,153.755 633.04,154.912 634.18,155.9 635.32,156.888 636.46,157.858 637.6,158.828 638.74,159.629 639.88,160.43 641.02,161.177 642.16,161.925 643.3,162.425 644.44,162.925 645.58,163.238 646.72,163.551 647.86,163.87 649,164.19 " />
<polyline fill="none" vector-effect="none" points="421,102.771 422.14,101.851 423.28,100.931 424.42,100.012 425.56,99.092 426.7,98.6059 427.84,98.1199 428.98,97.6488 430.12,97.1777 431.26,96.8039 432.4,96.43 433.54,96.4076 434.68,96.3851 435.82,96.5272 436.96,96.6693 438.1,96.9534 439.24,97.2376 440.38,97.7311 441.52,98.2246 442.66,98.9873 443.8,99.75 444.94,100.707 446.08,101.664 447.22,102.935 448.36,104.207 449.5,105.732 450.64,107.257 451.78,108.297 452.92,109.336 454.06,110.51 455.2,111.684 456.34,112.649 457.48,113.613 458.62,114.832 459.76,116.051 460.9,116.791 462.04,117.531 463.18,118.466 464.32,119.401 465.46,119.924 466.6,120.448 467.74,120.792 468.88,121.136 470.02,121.517 471.16,121.898 472.3,122.339 473.44,122.781 474.58,123.222 475.72,123.663 476.86,123.962 478,124.261 479.14,124.388 480.28,124.515 481.42,124.695 482.56,124.874 483.7,125.368 484.84,125.861 485.98,126.31 487.12,126.759 488.26,127.192 489.4,127.626 490.54,128.449 491.68,129.271 492.82,130.153 493.96,131.036 495.1,132.03 496.24,133.025 497.38,134.019 498.52,135.014 499.66,136.255 500.8,137.496 501.94,138.67 503.08,139.844 504.22,140.756 505.36,141.669 506.5,142.349 507.64,143.03 508.78,143.531 509.92,144.032 511.06,144.615 512.2,145.198 513.34,145.295 514.48,145.392 515.62,145.078 516.76,144.764 517.9,144.316 519.04,143.867 520.18,142.962 521.32,142.058 522.46,140.966 523.6,139.874 524.74,138.745 525.88,137.616 527.02,136.225 528.16,134.834 529.3,133.907 530.44,132.98 531.58,132.03 532.72,131.081 533.86,130.228 535,129.376 536.14,128.74 537.28,128.105 538.42,127.753 539.56,127.402 540.7,127.282 541.84,127.162 542.98,127.14 544.12,127.118 545.26,126.893 546.4,126.669 547.54,127.088 548.68,127.506 549.82,127.678 550.96,127.85 552.1,127.948 553.24,128.045 554.38,128.277 555.52,128.508 556.66,129.002 557.8,129.495 558.94,130.034 560.08,130.572 561.22,130.714 562.36,130.856 563.5,131.297 564.64,131.739 565.78,132.195 566.92,132.651 568.06,133.212 569.2,133.772 570.34,133.832 571.48,133.892 572.62,134.251 573.76,134.61 574.9,135.186 576.04,135.762 577.18,136.524 578.32,137.287 579.46,138.02 580.6,138.752 581.74,139.717 582.88,140.682 584.02,141.639 585.16,142.596 586.3,143.336 587.44,144.076 588.58,144.196 589.72,144.316 590.86,145.049 592,145.781 593.14,145.879 594.28,145.976 595.42,146.05 596.56,146.125 597.7,145.938 598.84,145.751 599.98,145.766 601.12,145.781 602.26,145.176 603.4,144.57 604.54,144.637 605.68,144.705 606.82,144.458 607.96,144.211 609.1,144.061 610.24,143.912 611.38,144.248 612.52,144.585 613.66,145.101 614.8,145.617 615.94,145.819 617.08,146.021 618.22,145.961 619.36,145.901 620.5,146.686 621.64,147.471 622.78,148.219 623.92,148.967 625.06,149.752 626.2,150.537 627.34,151.614 628.48,152.69 629.62,153.894 630.76,155.098 631.9,156.758 633.04,158.418 634.18,158.807 635.32,159.196 636.46,160.377 637.6,161.559 638.74,162.419 639.88,163.279 641.02,163.413 642.16,163.548 643.3,164.213 644.44,164.879 645.58,165.193 646.72,165.507 647.86,165.619 649,165.731 " />
</g>

<g fill="#ffffff" fill-opacity="1" stroke="none" transform="matrix(7.5e-05,0,0,7.5e-05,0,0)"
font-family="Georgia" font-size="22" font-weight="700" font-style="normal" 
>
<path vector-effect="none" fill-rule="evenodd" d="M930000,2.96e+06 L930000,4.5e+06 L3.21e+06,4.5e+06 L3.21e+06,2.96e+06 L930000,2.96e+06"/>
</g>

<g fill="#212121" fill-opacity="0.14902" stroke="#212121" stroke-opacity="0.14902" stroke-width="1.6" stroke-linecap="butt" stroke-linejoin="round" transform="matrix(0.75,0,0,0.75,0,0)"
font-family="Georgia" font-size="22" font-weight="700" font-style="normal" 
>
<polyline fill="none" vector-effect="none" points="93,296 93,450 " />
<polyline fill="none" vector-effect="none" points="207,296 207,450 " />
<polyline fill="none" vector-effect="none" points="321,296 321,450 " />
<polyline fill="none" vector-effect="none" points="93,450 321,450 " />
<polyline fill="none" vector-effect="none" points="93,401.875 321,401.875 " />
<polyline fill="none" vector-effect="none" points="93,353.75 321,353.75 " />
<polyline fill="none" vector-effect="none" points="93,305.625 321,305.625 " />
</g>

<g fill="#4d4d4d" fill-opacity="1" stroke="#4d4d4d" stroke-opacity="1" stroke-width="1" stroke-linecap="square" stroke-linejoin="bevel" transform="matrix(0.75,0,0,0.75,91.5001,376.131)"
font-family="Georgia" font-size="22" font-weight="400" font-style="normal" 
>
<text fill="#4d4d4d" fill-opacity="1" stroke="none" xml:space="preserve" x="0" y="0.171875" font-family="Georgia" font-size="22" font-weight="400" font-style="normal" 
 >Wavelength (nm)</text>
</g>

<g fill="#4d4d4d" fill-opacity="1" stroke="#4d4d4d" stroke-opacity="1" stroke-width="1.6" stroke-linecap="square" stroke-linejoin="round" transform="matrix(0.75,0,0,0.75,0,0)"
font-family="Georgia" font-size="22" font-weight="400" font-style="normal" 
>
<polyline fill="none" vector-effect="none" points="93,450 321,450 " />
<polyline fill="none" vector-effect="none" points="93,296 321,296 " />
<polyline fill="none" vector-effect="none" points="93,450 93,447.72 " />
<polyline fill="none" vector-effect="none" points="93,298.28 93,296 " />
<polyline fill="none" vector-effect="none" points="207,450 207,447.72 " />
<polyline fill="none" vector-effect="none" points="207,298.28 207,296 " />
<polyline fill="none" vector-effect="none" points="321,450 321,447.72 " />
<polyline fill="none" vector-effect="none" points="321,298.28 321,296 " />
</g>

<g fill="#4d4d4d" fill-opacity="1" stroke="#4d4d4d" stroke-opacity="1" stroke-width="1" stroke-linecap="square" stroke-linejoin="bevel" transform="matrix(0.75,0,0,0.75,56.625,355.787)"
font-family="Georgia" font-size="20" font-weight="400" font-style="normal" 
>
<text fill="#4d4d4d" fill-opacity="1" stroke="none" xml:space="preserve" x="0" y="0.328125" font-family="Georgia" font-size="20" font-weight="400" font-style="normal" 
 >500</text>
</g>

<g fill="#4d4d4d" fill-opacity="1" stroke="#4d4d4d" stroke-opacity="1" stroke-width="1" stroke-linecap="square" stroke-linejoin="bevel" transform="matrix(0.75,0,0,0.75,141.75,355.787)"
font-family="Georgia" font-size="20" font-weight="400" font-style="normal" 
>
<text fill="#4d4d4d" fill-opacity="1" stroke="none" xml:space="preserve" x="0" y="0.328125" font-family="Georgia" font-size="20" font-weight="400" font-style="normal" 
 >600</text>
</g>

<g fill="#4d4d4d" fill-opacity="1" stroke="#4d4d4d" stroke-opacity="1" stroke-width="1" stroke-linecap="square" stroke-linejoin="bevel" transform="matrix(0.75,0,0,0.75,227.625,355.787)"
font-family="Georgia" font-size="20" font-weight="400" font-style="normal" 
>
<text fill="#4d4d4d" fill-opacity="1" stroke="none" xml:space="preserve" x="0" y="0.328125" font-family="Georgia" font-size="20" font-weight="400" font-style="normal" 
 >700</text>
</g>

<g fill="#4d4d4d" fill-opacity="1" stroke="#4d4d4d" stroke-opacity="1" stroke-width="1" stroke-linecap="square" stroke-linejoin="bevel" transform="matrix(0,-0.75,0.75,0,35.275,355.875)"
font-family="Georgia" font-size="22" font-weight="400" font-style="normal" 
>
<text fill="#4d4d4d" fill-opacity="1" stroke="none" xml:space="preserve" x="0" y="0.171875" font-family="Georgia" font-size="22" font-weight="400" font-style="normal" 
 >Normalized radiance</text>
</g>

<g fill="#4d4d4d" fill-opacity="1" stroke="#4d4d4d" stroke-opacity="1" stroke-width="1.6" stroke-linecap="square" stroke-linejoin="round" transform="matrix(0.75,0,0,0.75,0,0)"
font-family="Georgia" font-size="22" font-weight="400" font-style="normal" 
>
<polyline fill="none" vector-effect="none" points="93,450 93,296 " />
<polyline fill="none" vector-effect="none" points="321,450 321,296 " />
<polyline fill="none" vector-effect="none" points="93,450 95.28,450 " />
<polyline fill="none" vector-effect="none" points="318.72,450 321,450 " />
<polyline fill="none" vector-effect="none" points="93,401.875 95.28,401.875 " />
<polyline fill="none" vector-effect="none" points="318.72,401.875 321,401.875 " />
<polyline fill="none" vector-effect="none" points="93,353.75 95.28,353.75 " />
<polyline fill="none" vector-effect="none" points="318.72,353.75 321,353.75 " />
<polyline fill="none" vector-effect="none" points="93,305.625 95.28,305.625 " />
<polyline fill="none" vector-effect="none" points="318.72,305.625 321,305.625 " />
</g>

<g fill="#4d4d4d" fill-opacity="1" stroke="#4d4d4d" stroke-opacity="1" stroke-width="1" stroke-linecap="square" stroke-linejoin="bevel" transform="matrix(0.75,0,0,0.75,55.9625,342.75)"
font-family="Georgia" font-size="20" font-weight="400" font-style="normal" 
>
<text fill="#4d4d4d" fill-opacity="1" stroke="none" xml:space="preserve" x="0" y="0.328125" font-family="Georgia" font-size="20" font-weight="400" font-style="normal" 
 >0</text>
</g>

<g fill="#4d4d4d" fill-opacity="1" stroke="#4d4d4d" stroke-opacity="1" stroke-width="1" stroke-linecap="square" stroke-linejoin="bevel" transform="matrix(0.75,0,0,0.75,43.9625,306.656)"
font-family="Georgia" font-size="20" font-weight="400" font-style="normal" 
>
<text fill="#4d4d4d" fill-opacity="1" stroke="none" xml:space="preserve" x="0" y="0.328125" font-family="Georgia" font-size="20" font-weight="400" font-style="normal" 
 >0.5</text>
</g>

<g fill="#4d4d4d" fill-opacity="1" stroke="#4d4d4d" stroke-opacity="1" stroke-width="1" stroke-linecap="square" stroke-linejoin="bevel" transform="matrix(0.75,0,0,0.75,58.2125,270.563)"
font-family="Georgia" font-size="20" font-weight="400" font-style="normal" 
>
<text fill="#4d4d4d" fill-opacity="1" stroke="none" xml:space="preserve" x="0" y="0.328125" font-family="Georgia" font-size="20" font-weight="400" font-style="normal" 
 >1</text>
</g>

<g fill="#4d4d4d" fill-opacity="1" stroke="#4d4d4d" stroke-opacity="1" stroke-width="1" stroke-linecap="square" stroke-linejoin="bevel" transform="matrix(0.75,0,0,0.75,46.2125,234.469)"
font-family="Georgia" font-size="20" font-weight="400" font-style="normal" 
>
<text fill="#4d4d4d" fill-opacity="1" stroke="none" xml:space="preserve" x="0" y="0.328125" font-family="Georgia" font-size="20" font-weight="400" font-style="normal" 
 >1.5</text>
</g>

<g fill="#4d4d4d" fill-opacity="1" stroke="#4d4d4d" stroke-opacity="1" stroke-width="1" stroke-linecap="square" stroke-linejoin="bevel" transform="matrix(0.75,0,0,0.75,61.5002,215.053)"
font-family="Georgia" font-size="22" font-weight="700" font-style="normal" 
>
<text fill="#4d4d4d" fill-opacity="1" stroke="none" xml:space="preserve" x="0" y="0.171875" font-family="Georgia" font-size="22" font-weight="700" font-style="normal" 
 >Subject 3:  rmse 0.037</text>
</g>

<g fill="none" stroke="#000000" stroke-opacity="1" stroke-dasharray="8,8" stroke-dashoffset="0" stroke-width="2.66667" stroke-linecap="butt" stroke-linejoin="round" transform="matrix(0.75,0,0,0.75,0,0)"
font-family="Georgia" font-size="22" font-weight="700" font-style="normal" 
>
<polyline fill="none" vector-effect="none" points="93,360.541 94.14,358.902 95.28,357.342 96.42,355.975 97.56,354.6 98.7,352.805 99.84,351.438 100.98,350.624 102.12,349.833 103.26,349.009 104.4,348.192 105.54,347.744 106.68,347.346 107.82,347.026 108.96,346.796 110.1,346.664 111.24,347.114 112.38,348.054 113.52,349.192 114.66,350.132 115.8,351.066 116.94,352.454 118.08,353.853 119.22,355.235 120.36,356.55 121.5,357.757 122.64,359.285 123.78,360.674 124.92,361.956 126.06,363.162 127.2,364.246 128.34,365.297 129.48,366.211 130.62,366.98 131.76,367.675 132.9,368.335 134.04,369.054 135.18,369.71 136.32,370.331 137.46,370.948 138.6,371.512 139.74,372.115 140.88,372.716 142.02,373.274 143.16,373.79 144.3,374.281 145.44,374.997 146.58,375.668 147.72,376.291 148.86,376.87 150,377.413 151.14,377.897 152.28,378.369 153.42,378.839 154.56,379.314 155.7,379.777 156.84,380.327 157.98,381.02 159.12,381.755 160.26,382.456 161.4,383.241 162.54,384.17 163.68,385.1 164.82,386.18 165.96,387.391 167.1,388.656 168.24,389.995 169.38,391.345 170.52,392.682 171.66,393.98 172.8,395.234 173.94,396.382 175.08,397.475 176.22,398.52 177.36,399.507 178.5,400.448 179.64,401.286 180.78,402.066 181.92,402.827 183.06,403.509 184.2,404.099 185.34,404.532 186.48,404.826 187.62,404.895 188.76,404.689 189.9,404.233 191.04,403.405 192.18,402.281 193.32,400.893 194.46,399.316 195.6,397.632 196.74,395.949 197.88,394.344 199.02,392.902 200.16,391.633 201.3,390.514 202.44,389.578 203.58,389.104 204.72,388.718 205.86,387.977 207,387.447 208.14,387.322 209.28,387.313 210.42,387.194 211.56,387.136 212.7,387.206 213.84,387.45 214.98,387.837 216.12,388.234 217.26,388.614 218.4,388.994 219.54,389.408 220.68,389.824 221.82,390.237 222.96,390.622 224.1,391.026 225.24,391.468 226.38,391.934 227.52,392.409 228.66,392.882 229.8,393.356 230.94,393.275 232.08,393.193 233.22,393.107 234.36,392.859 235.5,392.536 236.64,392.375 237.78,392.208 238.92,391.954 240.06,391.561 241.2,391.169 242.34,390.544 243.48,389.275 244.62,389.053 245.76,389.365 246.9,389.708 248.04,390.139 249.18,390.967 250.32,391.799 251.46,392.63 252.6,393.508 253.74,393.996 254.88,394.484 256.02,395.378 257.16,396.231 258.3,397.034 259.44,397.966 260.58,398.787 261.72,399.608 262.86,400.43 264,401.23 265.14,402.005 266.28,402.781 267.42,403.557 268.56,404.333 269.7,405.004 270.84,405.66 271.98,406.317 273.12,406.976 274.26,407.564 275.4,408.114 276.54,408.125 277.68,408.132 278.82,408.101 279.96,408.071 281.1,408.041 282.24,408.411 283.38,408.782 284.52,409.148 285.66,409.514 286.8,409.879 287.94,410.371 289.08,410.862 290.22,411.353 291.36,411.845 292.5,412.33 293.64,412.807 294.78,413.285 295.92,413.763 297.06,414.242 298.2,414.722 299.34,414.641 300.48,414.529 301.62,414.416 302.76,414.302 303.9,414.189 305.04,414.524 306.18,414.89 307.32,415.266 308.46,415.642 309.6,416.018 310.74,416.474 311.88,416.93 313.02,417.387 314.16,417.846 315.3,418.306 316.44,418.732 317.58,419.16 318.72,419.588 319.86,420.022 321,420.456 " />
<polyline fill="none" vector-effect="none" points="93,361.095 94.14,359.434 95.28,357.85 96.42,356.454 97.56,355.052 98.7,353.238 99.84,351.852 100.98,351.006 102.12,350.183 103.26,349.328 104.4,348.479 105.54,348.004 106.68,347.579 107.82,347.229 108.96,346.967 110.1,346.802 111.24,347.221 112.38,348.12 113.52,349.211 114.66,350.108 115.8,351 116.94,352.349 118.08,353.708 119.22,355.052 120.36,356.329 121.5,357.5 122.64,359 123.78,360.364 124.92,361.624 126.06,362.809 127.2,363.875 128.34,364.912 129.48,365.816 130.62,366.577 131.76,367.266 132.9,367.921 134.04,368.638 135.18,369.293 136.32,369.914 137.46,370.531 138.6,371.096 139.74,371.703 140.88,372.307 142.02,372.869 143.16,373.39 144.3,373.888 145.44,374.612 146.58,375.293 147.72,375.927 148.86,376.518 150,377.074 151.14,377.572 152.28,378.057 153.42,378.54 154.56,379.028 155.7,379.505 156.84,380.067 157.98,380.769 159.12,381.511 160.26,382.221 161.4,383.013 162.54,383.947 163.68,384.881 164.82,385.963 165.96,387.172 167.1,388.434 168.24,389.768 169.38,391.113 170.52,392.447 171.66,393.741 172.8,394.992 173.94,396.139 175.08,397.232 176.22,398.278 177.36,399.266 178.5,400.211 179.64,401.053 180.78,401.839 181.92,402.605 183.06,403.296 184.2,403.895 185.34,404.339 186.48,404.649 187.62,404.737 188.76,404.557 189.9,404.134 191.04,403.345 192.18,402.267 193.32,400.93 194.46,399.41 195.6,397.785 196.74,396.16 197.88,394.611 199.02,393.222 200.16,392.003 201.3,390.928 202.44,390.031 203.58,389.583 204.72,389.222 205.86,388.514 207,388.014 208.14,387.906 209.28,387.913 210.42,387.812 211.56,387.771 212.7,387.854 213.84,388.106 214.98,388.5 216.12,388.908 217.26,389.299 218.4,389.69 219.54,390.113 220.68,390.538 221.82,390.959 222.96,391.36 224.1,391.779 225.24,392.234 226.38,392.713 227.52,393.201 228.66,393.686 229.8,394.173 230.94,394.142 232.08,394.11 233.22,394.075 234.36,393.907 235.5,393.68 236.64,393.612 237.78,393.542 238.92,393.401 240.06,393.146 241.2,392.891 242.34,392.458 243.48,391.495 244.62,391.392 245.76,391.73 246.9,392.095 248.04,392.536 249.18,393.306 250.32,394.079 251.46,394.851 252.6,395.662 253.74,396.083 254.88,396.503 256.02,397.257 257.16,397.979 258.3,398.658 259.44,399.487 260.58,400.224 261.72,400.962 262.86,401.7 264,402.42 265.14,403.137 266.28,403.855 267.42,404.573 268.56,405.291 269.7,405.922 270.84,406.543 271.98,407.163 273.12,407.785 274.26,408.35 275.4,408.883 276.54,408.89 277.68,408.893 278.82,408.866 279.96,408.839 281.1,408.811 282.24,409.175 283.38,409.54 284.52,409.901 285.66,410.261 286.8,410.622 287.94,411.104 289.08,411.587 290.22,412.069 291.36,412.551 292.5,413.028 293.64,413.5 294.78,413.973 295.92,414.446 297.06,414.919 298.2,415.393 299.34,415.32 300.48,415.221 301.62,415.121 302.76,415.021 303.9,414.92 305.04,415.259 306.18,415.623 307.32,415.995 308.46,416.368 309.6,416.74 310.74,417.19 311.88,417.64 313.02,418.09 314.16,418.542 315.3,418.995 316.44,419.415 317.58,419.836 318.72,420.258 319.86,420.685 321,421.111 " />
<polyline fill="none" vector-effect="none" points="93,361.999 94.14,360.299 95.28,358.674 96.42,357.228 97.56,355.776 98.7,353.929 99.84,352.511 100.98,351.61 102.12,350.731 103.26,349.822 104.4,348.918 105.54,348.399 106.68,347.926 107.82,347.526 108.96,347.211 110.1,346.988 111.24,347.356 112.38,348.183 113.52,349.195 114.66,350.022 115.8,350.843 116.94,352.126 118.08,353.419 119.22,354.698 120.36,355.912 121.5,357.025 122.64,358.478 123.78,359.801 124.92,361.023 126.06,362.174 127.2,363.21 128.34,364.224 129.48,365.11 130.62,365.86 131.76,366.54 132.9,367.188 134.04,367.9 135.18,368.554 136.32,369.175 137.46,369.793 138.6,370.36 139.74,370.973 140.88,371.584 142.02,372.154 143.16,372.684 144.3,373.193 145.44,373.933 146.58,374.63 147.72,375.284 148.86,375.896 150,376.473 151.14,376.994 152.28,377.502 153.42,378.009 154.56,378.52 155.7,379.019 156.84,379.602 157.98,380.32 159.12,381.077 160.26,381.802 161.4,382.606 162.54,383.548 163.68,384.491 164.82,385.575 165.96,386.782 167.1,388.039 168.24,389.367 169.38,390.706 170.52,392.033 171.66,393.322 172.8,394.571 173.94,395.716 175.08,396.809 176.22,397.857 177.36,398.85 178.5,399.801 179.64,400.651 180.78,401.447 181.92,402.224 183.06,402.928 184.2,403.545 185.34,404.008 186.48,404.343 187.62,404.465 188.76,404.33 189.9,403.961 191.04,403.237 192.18,402.236 193.32,400.987 194.46,399.561 195.6,398.035 196.74,396.508 197.88,395.054 199.02,393.753 200.16,392.615 201.3,391.616 202.44,390.782 203.58,390.38 204.72,390.062 205.86,389.41 207,388.957 208.14,388.88 209.28,388.913 210.42,388.843 211.56,388.829 212.7,388.936 213.84,389.202 214.98,389.602 216.12,390.01 217.26,390.402 218.4,390.794 219.54,391.214 220.68,391.636 221.82,392.054 222.96,392.446 224.1,392.855 225.24,393.296 226.38,393.759 227.52,394.231 228.66,394.701 229.8,395.172 230.94,395.116 232.08,395.059 233.22,394.999 234.36,394.783 235.5,394.495 236.64,394.354 237.78,394.207 238.92,393.976 240.06,393.612 241.2,393.249 242.34,392.658 243.48,391.447 244.62,391.242 245.76,391.55 246.9,391.888 248.04,392.306 249.18,393.106 250.32,393.908 251.46,394.71 252.6,395.558 253.74,396.04 254.88,396.521 256.02,397.393 257.16,398.227 258.3,399.01 259.44,399.91 260.58,400.702 261.72,401.496 262.86,402.289 264,403.061 265.14,403.806 266.28,404.55 267.42,405.295 268.56,406.041 269.7,406.684 270.84,407.313 271.98,407.941 273.12,408.571 274.26,409.134 275.4,409.659 276.54,409.679 277.68,409.693 278.82,409.672 279.96,409.652 281.1,409.631 282.24,409.986 283.38,410.342 284.52,410.693 285.66,411.044 286.8,411.395 287.94,411.861 289.08,412.327 290.22,412.794 291.36,413.26 292.5,413.72 293.64,414.172 294.78,414.624 295.92,415.077 297.06,415.531 298.2,415.984 299.34,415.912 300.48,415.811 301.62,415.708 302.76,415.604 303.9,415.501 305.04,415.82 306.18,416.168 307.32,416.525 308.46,416.883 309.6,417.24 310.74,417.671 311.88,418.102 313.02,418.532 314.16,418.965 315.3,419.399 316.44,419.802 317.58,420.205 318.72,420.609 319.86,421.018 321,421.428 " />
</g>

<g fill="none" stroke="#b3b3b3" stroke-opacity="1" stroke-width="2.66667" stroke-linecap="butt" stroke-linejoin="round" transform="matrix(0.75,0,0,0.75,0,0)"
font-family="Georgia" font-size="22" font-weight="700" font-style="normal" 
>
<polyline fill="none" vector-effect="none" points="93,357.492 94.14,356.488 95.28,355.484 96.42,354.63 97.56,353.776 98.7,353.046 99.84,352.316 100.98,351.794 102.12,351.273 103.26,350.817 104.4,350.36 105.54,350.341 106.68,350.321 107.82,350.432 108.96,350.543 110.1,350.843 111.24,351.143 112.38,351.605 113.52,352.068 114.66,352.909 115.8,353.75 116.94,354.793 118.08,355.836 119.22,357.042 120.36,358.248 121.5,359.558 122.64,360.868 123.78,362.113 124.92,363.358 126.06,364.557 127.2,365.757 128.34,366.748 129.48,367.738 130.62,368.729 131.76,369.72 132.9,370.672 134.04,371.623 135.18,372.412 136.32,373.201 137.46,373.787 138.6,374.374 139.74,374.843 140.88,375.313 142.02,375.821 143.16,376.33 144.3,376.721 145.44,377.112 146.58,377.49 147.72,377.868 148.86,378.129 150,378.389 151.14,378.559 152.28,378.728 153.42,378.904 154.56,379.08 155.7,379.406 156.84,379.732 157.98,380.149 159.12,380.566 160.26,381.264 161.4,381.961 162.54,382.685 163.68,383.409 164.82,384.249 165.96,385.09 167.1,386.048 168.24,387.007 169.38,388.069 170.52,389.132 171.66,390.364 172.8,391.596 173.94,392.697 175.08,393.799 176.22,394.737 177.36,395.676 178.5,396.445 179.64,397.214 180.78,397.788 181.92,398.362 183.06,398.714 184.2,399.066 185.34,399.157 186.48,399.248 187.62,398.994 188.76,398.74 189.9,398.199 191.04,397.658 192.18,396.817 193.32,395.976 194.46,395.018 195.6,394.059 196.74,392.912 197.88,391.765 199.02,390.774 200.16,389.783 201.3,388.949 202.44,388.115 203.58,387.365 204.72,386.616 205.86,386.022 207,385.429 208.14,385.032 209.28,384.634 210.42,384.406 211.56,384.178 212.7,384.119 213.84,384.06 214.98,384.093 216.12,384.126 217.26,384.249 218.4,384.373 219.54,384.608 220.68,384.843 221.82,385.045 222.96,385.247 224.1,385.52 225.24,385.794 226.38,386.055 227.52,386.316 228.66,386.583 229.8,386.85 230.94,387.241 232.08,387.632 233.22,387.867 234.36,388.102 235.5,388.252 236.64,388.402 237.78,388.408 238.92,388.415 240.06,388.213 241.2,388.01 242.34,387.58 243.48,387.15 244.62,386.883 245.76,386.616 246.9,386.746 248.04,386.876 249.18,387.685 250.32,388.493 251.46,389.953 252.6,391.413 253.74,393.127 254.88,394.842 256.02,396.315 257.16,397.788 258.3,399.04 259.44,400.291 260.58,401.347 261.72,402.403 262.86,403.472 264,404.541 265.14,405.362 266.28,406.184 267.42,406.894 268.56,407.605 269.7,408.243 270.84,408.882 271.98,409.456 273.12,410.029 274.26,410.557 275.4,411.085 276.54,411.509 277.68,411.933 278.82,412.181 279.96,412.428 281.1,412.741 282.24,413.054 283.38,413.347 284.52,413.641 285.66,413.96 286.8,414.279 287.94,414.605 289.08,414.931 290.22,415.244 291.36,415.557 292.5,415.909 293.64,416.261 294.78,416.691 295.92,417.121 297.06,417.506 298.2,417.891 299.34,418.23 300.48,418.569 301.62,418.979 302.76,419.39 303.9,419.794 305.04,420.198 306.18,420.628 307.32,421.059 308.46,421.489 309.6,421.919 310.74,422.356 311.88,422.792 313.02,423.21 314.16,423.627 315.3,423.855 316.44,424.083 317.58,424.246 318.72,424.409 319.86,424.565 321,424.722 " />
<polyline fill="none" vector-effect="none" points="93,356.417 94.14,355.533 95.28,354.65 96.42,353.883 97.56,353.117 98.7,352.483 99.84,351.85 100.98,351.411 102.12,350.972 103.26,350.595 104.4,350.217 105.54,350.234 106.68,350.25 107.82,350.378 108.96,350.506 110.1,350.839 111.24,351.172 112.38,351.65 113.52,352.128 114.66,352.939 115.8,353.75 116.94,354.778 118.08,355.805 119.22,356.955 120.36,358.105 121.5,359.35 122.64,360.594 123.78,361.8 124.92,363.005 126.06,364.166 127.2,365.327 128.34,366.277 129.48,367.227 130.62,368.182 131.76,369.138 132.9,370.094 134.04,371.049 135.18,371.821 136.32,372.593 137.46,373.177 138.6,373.76 139.74,374.243 140.88,374.727 142.02,375.254 143.16,375.782 144.3,376.221 145.44,376.66 146.58,377.065 147.72,377.471 148.86,377.804 150,378.137 151.14,378.343 152.28,378.549 153.42,378.771 154.56,378.993 155.7,379.354 156.84,379.715 157.98,380.176 159.12,380.637 160.26,381.348 161.4,382.059 162.54,382.776 163.68,383.493 164.82,384.309 165.96,385.126 167.1,386.048 168.24,386.97 169.38,387.992 170.52,389.015 171.66,390.17 172.8,391.326 173.94,392.409 175.08,393.492 176.22,394.387 177.36,395.281 178.5,396.042 179.64,396.803 180.78,397.386 181.92,397.97 183.06,398.381 184.2,398.792 185.34,398.958 186.48,399.125 187.62,398.986 188.76,398.847 189.9,398.431 191.04,398.014 192.18,397.336 193.32,396.659 194.46,395.859 195.6,395.059 196.74,394.075 197.88,393.092 199.02,392.226 200.16,391.359 201.3,390.603 202.44,389.848 203.58,389.131 204.72,388.415 205.86,387.842 207,387.27 208.14,386.831 209.28,386.393 210.42,386.148 211.56,385.904 212.7,385.793 213.84,385.681 214.98,385.67 216.12,385.659 217.26,385.737 218.4,385.815 219.54,385.981 220.68,386.148 221.82,386.326 222.96,386.504 224.1,386.765 225.24,387.026 226.38,387.276 227.52,387.526 228.66,387.804 229.8,388.081 230.94,388.476 232.08,388.87 233.22,389.148 234.36,389.426 235.5,389.659 236.64,389.892 237.78,389.998 238.92,390.103 240.06,390.065 241.2,390.026 242.34,389.82 243.48,389.615 244.62,389.52 245.76,389.426 246.9,389.637 248.04,389.848 249.18,390.576 250.32,391.303 251.46,392.553 252.6,393.803 253.74,395.303 254.88,396.803 256.02,398.07 257.16,399.336 258.3,400.408 259.44,401.481 260.58,402.381 261.72,403.28 262.86,404.242 264,405.203 265.14,405.953 266.28,406.703 267.42,407.33 268.56,407.958 269.7,408.558 270.84,409.158 271.98,409.708 273.12,410.258 274.26,410.797 275.4,411.336 276.54,411.747 277.68,412.158 278.82,412.402 279.96,412.647 281.1,412.958 282.24,413.269 283.38,413.558 284.52,413.847 285.66,414.135 286.8,414.424 287.94,414.719 289.08,415.013 290.22,415.33 291.36,415.646 292.5,416.03 293.64,416.413 294.78,416.885 295.92,417.357 297.06,417.73 298.2,418.102 299.34,418.485 300.48,418.868 301.62,419.28 302.76,419.691 303.9,420.118 305.04,420.546 306.18,420.979 307.32,421.413 308.46,421.846 309.6,422.279 310.74,422.718 311.88,423.157 313.02,423.535 314.16,423.913 315.3,424.14 316.44,424.368 317.58,424.501 318.72,424.635 319.86,424.729 321,424.824 " />
<polyline fill="none" vector-effect="none" points="93,357.985 94.14,356.965 95.28,355.946 96.42,355.135 97.56,354.325 98.7,353.619 99.84,352.913 100.98,352.365 102.12,351.816 103.26,351.345 104.4,350.875 105.54,350.77 106.68,350.665 107.82,350.77 108.96,350.875 110.1,351.136 111.24,351.397 112.38,351.789 113.52,352.182 114.66,352.966 115.8,353.75 116.94,354.717 118.08,355.684 119.22,356.756 120.36,357.828 121.5,359.109 122.64,360.39 123.78,361.566 124.92,362.742 126.06,363.945 127.2,365.147 128.34,366.088 129.48,367.029 130.62,367.971 131.76,368.912 132.9,369.827 134.04,370.741 135.18,371.526 136.32,372.31 137.46,372.833 138.6,373.355 139.74,373.826 140.88,374.297 142.02,374.898 143.16,375.499 144.3,375.865 145.44,376.231 146.58,376.702 147.72,377.172 148.86,377.433 150,377.695 151.14,377.904 152.28,378.113 153.42,378.348 154.56,378.584 155.7,378.923 156.84,379.263 157.98,379.577 159.12,379.891 160.26,380.701 161.4,381.511 162.54,382.217 163.68,382.923 164.82,383.707 165.96,384.491 167.1,385.406 168.24,386.321 169.38,387.315 170.52,388.308 171.66,389.537 172.8,390.765 173.94,391.863 175.08,392.961 176.22,393.798 177.36,394.634 178.5,395.366 179.64,396.098 180.78,396.699 181.92,397.3 183.06,397.716 184.2,398.132 185.34,398.241 186.48,398.351 187.62,398.168 188.76,397.985 189.9,397.486 191.04,396.987 192.18,396.202 193.32,395.418 194.46,394.556 195.6,393.693 196.74,392.752 197.88,391.811 199.02,390.974 200.16,390.138 201.3,389.432 202.44,388.726 203.58,388.099 204.72,387.471 205.86,387.001 207,386.53 208.14,386.243 209.28,385.955 210.42,385.825 211.56,385.694 212.7,385.72 213.84,385.746 214.98,385.877 216.12,386.008 217.26,386.217 218.4,386.426 219.54,386.661 220.68,386.896 221.82,387.105 222.96,387.315 224.1,387.654 225.24,387.994 226.38,388.308 227.52,388.622 228.66,388.935 229.8,389.249 230.94,389.641 232.08,390.033 233.22,390.216 234.36,390.399 235.5,390.556 236.64,390.713 237.78,390.687 238.92,390.661 240.06,390.242 241.2,389.824 242.34,389.38 243.48,388.935 244.62,388.648 245.76,388.36 246.9,388.491 248.04,388.622 249.18,389.563 250.32,390.504 251.46,391.994 252.6,393.484 253.74,395.157 254.88,396.83 256.02,398.356 257.16,399.883 258.3,401.214 259.44,402.544 260.58,403.663 261.72,404.782 262.86,405.791 264,406.8 265.14,407.574 266.28,408.347 267.42,409.009 268.56,409.67 269.7,410.261 270.84,410.852 271.98,411.435 273.12,412.018 274.26,412.54 275.4,413.063 276.54,413.432 277.68,413.8 278.82,414.002 279.96,414.203 281.1,414.626 282.24,415.05 283.38,415.225 284.52,415.4 285.66,415.79 286.8,416.179 287.94,416.482 289.08,416.786 290.22,416.982 291.36,417.178 292.5,417.497 293.64,417.816 294.78,418.315 295.92,418.814 297.06,419.13 298.2,419.447 299.34,419.677 300.48,419.907 301.62,420.283 302.76,420.66 303.9,420.866 305.04,421.073 306.18,421.556 307.32,422.04 308.46,422.322 309.6,422.605 310.74,423.242 311.88,423.88 313.02,424.278 314.16,424.675 315.3,424.785 316.44,424.895 317.58,425.075 318.72,425.255 319.86,425.637 321,426.019 " />
</g>

<g fill="#ffffff" fill-opacity="1" stroke="none" transform="matrix(7.5e-05,0,0,7.5e-05,0,0)"
font-family="Georgia" font-size="22" font-weight="700" font-style="normal" 
>
<path vector-effect="none" fill-rule="evenodd" d="M4.21e+06,2.96e+06 L4.21e+06,4.5e+06 L6.49e+06,4.5e+06 L6.49e+06,2.96e+06 L4.21e+06,2.96e+06"/>
</g>

<g fill="#212121" fill-opacity="0.14902" stroke="#212121" stroke-opacity="0.14902" stroke-width="1.6" stroke-linecap="butt" stroke-linejoin="round" transform="matrix(0.75,0,0,0.75,0,0)"
font-family="Georgia" font-size="22" font-weight="700" font-style="normal" 
>
<polyline fill="none" vector-effect="none" points="421,296 421,450 " />
<polyline fill="none" vector-effect="none" points="535,296 535,450 " />
<polyline fill="none" vector-effect="none" points="649,296 649,450 " />
<polyline fill="none" vector-effect="none" points="421,450 649,450 " />
<polyline fill="none" vector-effect="none" points="421,398.667 649,398.667 " />
<polyline fill="none" vector-effect="none" points="421,347.333 649,347.333 " />
<polyline fill="none" vector-effect="none" points="421,296 649,296 " />
</g>

<g fill="#4d4d4d" fill-opacity="1" stroke="#4d4d4d" stroke-opacity="1" stroke-width="1" stroke-linecap="square" stroke-linejoin="bevel" transform="matrix(0.75,0,0,0.75,337.5,376.131)"
font-family="Georgia" font-size="22" font-weight="400" font-style="normal" 
>
<text fill="#4d4d4d" fill-opacity="1" stroke="none" xml:space="preserve" x="0" y="0.171875" font-family="Georgia" font-size="22" font-weight="400" font-style="normal" 
 >Wavelength (nm)</text>
</g>

<g fill="#4d4d4d" fill-opacity="1" stroke="#4d4d4d" stroke-opacity="1" stroke-width="1.6" stroke-linecap="square" stroke-linejoin="round" transform="matrix(0.75,0,0,0.75,0,0)"
font-family="Georgia" font-size="22" font-weight="400" font-style="normal" 
>
<polyline fill="none" vector-effect="none" points="421,450 649,450 " />
<polyline fill="none" vector-effect="none" points="421,296 649,296 " />
<polyline fill="none" vector-effect="none" points="421,450 421,447.72 " />
<polyline fill="none" vector-effect="none" points="421,298.28 421,296 " />
<polyline fill="none" vector-effect="none" points="535,450 535,447.72 " />
<polyline fill="none" vector-effect="none" points="535,298.28 535,296 " />
<polyline fill="none" vector-effect="none" points="649,450 649,447.72 " />
<polyline fill="none" vector-effect="none" points="649,298.28 649,296 " />
</g>

<g fill="#4d4d4d" fill-opacity="1" stroke="#4d4d4d" stroke-opacity="1" stroke-width="1" stroke-linecap="square" stroke-linejoin="bevel" transform="matrix(0.75,0,0,0.75,302.625,355.787)"
font-family="Georgia" font-size="20" font-weight="400" font-style="normal" 
>
<text fill="#4d4d4d" fill-opacity="1" stroke="none" xml:space="preserve" x="0" y="0.328125" font-family="Georgia" font-size="20" font-weight="400" font-style="normal" 
 >500</text>
</g>

<g fill="#4d4d4d" fill-opacity="1" stroke="#4d4d4d" stroke-opacity="1" stroke-width="1" stroke-linecap="square" stroke-linejoin="bevel" transform="matrix(0.75,0,0,0.75,387.75,355.787)"
font-family="Georgia" font-size="20" font-weight="400" font-style="normal" 
>
<text fill="#4d4d4d" fill-opacity="1" stroke="none" xml:space="preserve" x="0" y="0.328125" font-family="Georgia" font-size="20" font-weight="400" font-style="normal" 
 >600</text>
</g>

<g fill="#4d4d4d" fill-opacity="1" stroke="#4d4d4d" stroke-opacity="1" stroke-width="1" stroke-linecap="square" stroke-linejoin="bevel" transform="matrix(0.75,0,0,0.75,473.625,355.787)"
font-family="Georgia" font-size="20" font-weight="400" font-style="normal" 
>
<text fill="#4d4d4d" fill-opacity="1" stroke="none" xml:space="preserve" x="0" y="0.328125" font-family="Georgia" font-size="20" font-weight="400" font-style="normal" 
 >700</text>
</g>

<g fill="#4d4d4d" fill-opacity="1" stroke="#4d4d4d" stroke-opacity="1" stroke-width="1" stroke-linecap="square" stroke-linejoin="bevel" transform="matrix(0,-0.75,0.75,0,294.775,355.875)"
font-family="Georgia" font-size="22" font-weight="400" font-style="normal" 
>
<text fill="#4d4d4d" fill-opacity="1" stroke="none" xml:space="preserve" x="0" y="0.171875" font-family="Georgia" font-size="22" font-weight="400" font-style="normal" 
 >Normalized radiance</text>
</g>

<g fill="#4d4d4d" fill-opacity="1" stroke="#4d4d4d" stroke-opacity="1" stroke-width="1.6" stroke-linecap="square" stroke-linejoin="round" transform="matrix(0.75,0,0,0.75,0,0)"
font-family="Georgia" font-size="22" font-weight="400" font-style="normal" 
>
<polyline fill="none" vector-effect="none" points="421,450 421,296 " />
<polyline fill="none" vector-effect="none" points="649,450 649,296 " />
<polyline fill="none" vector-effect="none" points="421,450 423.28,450 " />
<polyline fill="none" vector-effect="none" points="646.72,450 649,450 " />
<polyline fill="none" vector-effect="none" points="421,398.667 423.28,398.667 " />
<polyline fill="none" vector-effect="none" points="646.72,398.667 649,398.667 " />
<polyline fill="none" vector-effect="none" points="421,347.333 423.28,347.333 " />
<polyline fill="none" vector-effect="none" points="646.72,347.333 649,347.333 " />
<polyline fill="none" vector-effect="none" points="421,296 423.28,296 " />
<polyline fill="none" vector-effect="none" points="646.72,296 649,296 " />
</g>

<g fill="#4d4d4d" fill-opacity="1" stroke="#4d4d4d" stroke-opacity="1" stroke-width="1" stroke-linecap="square" stroke-linejoin="bevel" transform="matrix(0.75,0,0,0.75,301.962,342.75)"
font-family="Georgia" font-size="20" font-weight="400" font-style="normal" 
>
<text fill="#4d4d4d" fill-opacity="1" stroke="none" xml:space="preserve" x="0" y="0.328125" font-family="Georgia" font-size="20" font-weight="400" font-style="normal" 
 >0</text>
</g>

<g fill="#4d4d4d" fill-opacity="1" stroke="#4d4d4d" stroke-opacity="1" stroke-width="1" stroke-linecap="square" stroke-linejoin="bevel" transform="matrix(0.75,0,0,0.75,304.212,304.25)"
font-family="Georgia" font-size="20" font-weight="400" font-style="normal" 
>
<text fill="#4d4d4d" fill-opacity="1" stroke="none" xml:space="preserve" x="0" y="0.328125" font-family="Georgia" font-size="20" font-weight="400" font-style="normal" 
 >1</text>
</g>

<g fill="#4d4d4d" fill-opacity="1" stroke="#4d4d4d" stroke-opacity="1" stroke-width="1" stroke-linecap="square" stroke-linejoin="bevel" transform="matrix(0.75,0,0,0.75,302.712,265.75)"
font-family="Georgia" font-size="20" font-weight="400" font-style="normal" 
>
<text fill="#4d4d4d" fill-opacity="1" stroke="none" xml:space="preserve" x="0" y="0.328125" font-family="Georgia" font-size="20" font-weight="400" font-style="normal" 
 >2</text>
</g>

<g fill="#4d4d4d" fill-opacity="1" stroke="#4d4d4d" stroke-opacity="1" stroke-width="1" stroke-linecap="square" stroke-linejoin="bevel" transform="matrix(0.75,0,0,0.75,302.712,227.25)"
font-family="Georgia" font-size="20" font-weight="400" font-style="normal" 
>
<text fill="#4d4d4d" fill-opacity="1" stroke="none" xml:space="preserve" x="0" y="0.328125" font-family="Georgia" font-size="20" font-weight="400" font-style="normal" 
 >3</text>
</g>

<g fill="#4d4d4d" fill-opacity="1" stroke="#4d4d4d" stroke-opacity="1" stroke-width="1" stroke-linecap="square" stroke-linejoin="bevel" transform="matrix(0.75,0,0,0.75,307.5,215.053)"
font-family="Georgia" font-size="22" font-weight="700" font-style="normal" 
>
<text fill="#4d4d4d" fill-opacity="1" stroke="none" xml:space="preserve" x="0" y="0.171875" font-family="Georgia" font-size="22" font-weight="700" font-style="normal" 
 >Subject 4:  rmse 0.018</text>
</g>

<g fill="none" stroke="#000000" stroke-opacity="1" stroke-dasharray="8,8" stroke-dashoffset="0" stroke-width="2.66667" stroke-linecap="butt" stroke-linejoin="round" transform="matrix(0.75,0,0,0.75,0,0)"
font-family="Georgia" font-size="22" font-weight="700" font-style="normal" 
>
<polyline fill="none" vector-effect="none" points="421,403.411 422.14,402.671 423.28,401.964 424.42,401.337 425.56,400.708 426.7,399.902 427.84,399.285 428.98,398.9 430.12,398.525 431.26,398.137 432.4,397.751 433.54,397.533 434.68,397.337 435.82,397.173 436.96,397.047 438.1,396.963 439.24,397.138 440.38,397.52 441.52,397.986 442.66,398.368 443.8,398.747 444.94,399.331 446.08,399.92 447.22,400.502 448.36,401.056 449.5,401.565 450.64,402.222 451.78,402.821 452.92,403.376 454.06,403.898 455.2,404.369 456.34,404.829 457.48,405.232 458.62,405.572 459.76,405.882 460.9,406.176 462.04,406.499 463.18,406.795 464.32,407.076 465.46,407.356 466.6,407.613 467.74,407.889 468.88,408.164 470.02,408.421 471.16,408.66 472.3,408.888 473.44,409.219 474.58,409.53 475.72,409.821 476.86,410.093 478,410.351 479.14,410.582 480.28,410.809 481.42,411.035 482.56,411.263 483.7,411.486 484.84,411.747 485.98,412.068 487.12,412.407 488.26,412.732 489.4,413.092 490.54,413.515 491.68,413.938 492.82,414.424 493.96,414.966 495.1,415.531 496.24,416.127 497.38,416.729 498.52,417.325 499.66,417.905 500.8,418.466 501.94,418.981 503.08,419.473 504.22,419.945 505.36,420.392 506.5,420.819 507.64,421.202 508.78,421.559 509.92,421.909 511.06,422.225 512.2,422.501 513.34,422.709 514.48,422.859 515.62,422.913 516.76,422.852 517.9,422.686 519.04,422.361 520.18,421.914 521.32,421.356 522.46,420.721 523.6,420.042 524.74,419.364 525.88,418.72 527.02,418.145 528.16,417.642 529.3,417.203 530.44,416.838 531.58,416.665 532.72,416.53 533.86,416.246 535,416.051 536.14,416.023 537.28,416.044 538.42,416.019 539.56,416.02 540.7,416.073 541.84,416.199 542.98,416.371 544.12,416.532 545.26,416.685 546.4,416.839 547.54,417.005 548.68,417.173 549.82,417.338 550.96,417.467 552.1,417.6 553.24,417.747 554.38,417.904 555.52,418.065 556.66,418.225 557.8,418.386 558.94,418.2 560.08,418.014 561.22,417.827 562.36,417.458 563.5,416.999 564.64,416.591 565.78,416.168 566.92,415.647 568.06,414.974 569.2,414.302 570.34,413.314 571.48,411.62 572.62,411.071 573.76,411.103 574.9,411.16 576.04,411.291 577.18,411.848 578.32,412.406 579.46,412.963 580.6,413.57 581.74,414.052 582.88,414.531 584.02,415.453 585.16,416.328 586.3,417.142 587.44,417.905 588.58,418.539 589.72,419.166 590.86,419.787 592,420.376 593.14,420.848 594.28,421.312 595.42,421.762 596.56,422.201 597.7,422.509 598.84,422.779 599.98,423.037 601.12,423.285 602.26,423.441 603.4,423.549 604.54,423.428 605.68,423.298 606.82,423.132 607.96,422.952 609.1,422.775 610.24,422.759 611.38,422.749 612.52,422.726 613.66,422.718 614.8,422.715 615.94,422.776 617.08,422.851 618.22,422.934 619.36,423.035 620.5,423.154 621.64,423.285 622.78,423.438 623.92,423.616 625.06,423.826 626.2,424.068 627.34,424.102 628.48,424.138 629.62,424.191 630.76,424.265 631.9,424.351 633.04,424.639 634.18,424.955 635.32,425.294 636.46,425.623 637.6,425.954 638.74,426.308 639.88,426.657 641.02,426.977 642.16,427.294 643.3,427.592 644.44,427.872 645.58,428.135 646.72,428.388 647.86,428.639 649,428.876 " />
<polyline fill="none" vector-effect="none" points="421,405.297 422.14,404.474 423.28,403.679 424.42,402.95 425.56,402.219 426.7,401.342 427.84,400.656 428.98,400.161 430.12,399.674 431.26,399.176 432.4,398.68 433.54,398.372 434.68,398.082 435.82,397.818 436.96,397.586 438.1,397.388 439.24,397.464 440.38,397.71 441.52,398.025 442.66,398.271 443.8,398.516 444.94,398.976 446.08,399.44 447.22,399.898 448.36,400.334 449.5,400.732 450.64,401.302 451.78,401.824 452.92,402.309 454.06,402.768 455.2,403.184 456.34,403.602 457.48,403.973 458.62,404.292 459.76,404.585 460.9,404.867 462.04,405.184 463.18,405.48 464.32,405.763 465.46,406.045 466.6,406.308 467.74,406.598 468.88,406.887 470.02,407.161 471.16,407.42 472.3,407.671 473.44,408.034 474.58,408.381 475.72,408.711 476.86,409.026 478,409.329 479.14,409.606 480.28,409.879 481.42,410.152 482.56,410.426 483.7,410.696 484.84,411 485.98,411.354 487.12,411.722 488.26,412.079 489.4,412.465 490.54,412.907 491.68,413.35 492.82,413.845 493.96,414.386 495.1,414.945 496.24,415.534 497.38,416.126 498.52,416.715 499.66,417.289 500.8,417.849 501.94,418.364 503.08,418.859 504.22,419.338 505.36,419.797 506.5,420.239 507.64,420.639 508.78,421.018 509.92,421.391 511.06,421.736 512.2,422.048 513.34,422.296 514.48,422.496 515.62,422.616 516.76,422.641 517.9,422.58 519.04,422.38 520.18,422.079 521.32,421.686 522.46,421.23 523.6,420.737 524.74,420.243 525.88,419.777 527.02,419.368 528.16,419.019 529.3,418.722 530.44,418.477 531.58,418.39 532.72,418.335 533.86,418.157 535,418.053 536.14,418.084 537.28,418.155 538.42,418.188 539.56,418.242 540.7,418.34 541.84,418.493 542.98,418.675 544.12,418.833 545.26,418.984 546.4,419.136 547.54,419.293 548.68,419.45 549.82,419.606 550.96,419.709 552.1,419.813 553.24,419.923 554.38,420.042 555.52,420.163 556.66,420.284 557.8,420.406 558.94,420.141 560.08,419.876 561.22,419.609 562.36,419.096 563.5,418.458 564.64,417.846 565.78,417.209 566.92,416.437 568.06,415.461 569.2,414.485 570.34,413.059 571.48,410.675 572.62,409.845 573.76,409.799 574.9,409.785 576.04,409.862 577.18,410.512 578.32,411.162 579.46,411.812 580.6,412.529 581.74,413.176 582.88,413.818 584.02,415.062 585.16,416.24 586.3,417.335 587.44,418.297 588.58,419.084 589.72,419.861 590.86,420.63 592,421.355 593.14,421.894 594.28,422.422 595.42,422.931 596.56,423.425 597.7,423.74 598.84,424.001 599.98,424.247 601.12,424.477 602.26,424.583 603.4,424.622 604.54,424.471 605.68,424.305 606.82,424.091 607.96,423.859 609.1,423.63 610.24,423.532 611.38,423.441 612.52,423.333 613.66,423.245 614.8,423.163 615.94,423.138 617.08,423.132 618.22,423.137 619.36,423.166 620.5,423.22 621.64,423.287 622.78,423.384 623.92,423.515 625.06,423.689 626.2,423.907 627.34,423.966 628.48,424.027 629.62,424.113 630.76,424.225 631.9,424.356 633.04,424.66 634.18,425.003 635.32,425.378 636.46,425.738 637.6,426.101 638.74,426.474 639.88,426.842 641.02,427.169 642.16,427.493 643.3,427.791 644.44,428.071 645.58,428.327 646.72,428.571 647.86,428.81 649,429.033 " />
</g>

<g fill="none" stroke="#b3b3b3" stroke-opacity="1" stroke-width="2.66667" stroke-linecap="butt" stroke-linejoin="round" transform="matrix(0.75,0,0,0.75,0,0)"
font-family="Georgia" font-size="22" font-weight="700" font-style="normal" 
>
<polyline fill="none" vector-effect="none" points="421,403.554 422.14,402.918 423.28,402.282 424.42,401.715 425.56,401.148 426.7,400.619 427.84,400.09 428.98,399.649 430.12,399.208 431.26,398.799 432.4,398.39 433.54,398.213 434.68,398.037 435.82,397.892 436.96,397.747 438.1,397.772 439.24,397.797 440.38,397.905 441.52,398.012 442.66,398.339 443.8,398.667 444.94,399.101 446.08,399.536 447.22,400.071 448.36,400.607 449.5,401.18 450.64,401.753 451.78,402.339 452.92,402.924 454.06,403.517 455.2,404.109 456.34,404.594 457.48,405.079 458.62,405.57 459.76,406.061 460.9,406.521 462.04,406.981 463.18,407.39 464.32,407.8 465.46,408.089 466.6,408.379 467.74,408.6 468.88,408.82 470.02,409.072 471.16,409.324 472.3,409.595 473.44,409.866 474.58,410.08 475.72,410.294 476.86,410.458 478,410.621 479.14,410.716 480.28,410.81 481.42,410.936 482.56,411.062 483.7,411.27 484.84,411.478 485.98,411.724 487.12,411.969 488.26,412.379 489.4,412.788 490.54,413.141 491.68,413.493 492.82,413.972 493.96,414.451 495.1,414.948 496.24,415.446 497.38,416.032 498.52,416.618 499.66,417.26 500.8,417.902 501.94,418.545 503.08,419.187 504.22,419.71 505.36,420.233 506.5,420.661 507.64,421.09 508.78,421.398 509.92,421.707 511.06,421.94 512.2,422.173 513.34,422.217 514.48,422.261 515.62,422.129 516.76,421.997 517.9,421.719 519.04,421.442 520.18,421.02 521.32,420.598 522.46,420.12 523.6,419.641 524.74,419.099 525.88,418.558 527.02,418.129 528.16,417.701 529.3,417.361 530.44,417.021 531.58,416.725 532.72,416.429 533.86,416.214 535,416 536.14,415.874 537.28,415.748 538.42,415.742 539.56,415.736 540.7,415.742 541.84,415.748 542.98,415.792 544.12,415.837 545.26,415.918 546.4,416 547.54,416.126 548.68,416.252 549.82,416.347 550.96,416.441 552.1,416.542 553.24,416.643 554.38,416.687 555.52,416.731 556.66,416.756 557.8,416.781 558.94,416.794 560.08,416.807 561.22,416.687 562.36,416.567 563.5,416.271 564.64,415.975 565.78,415.503 566.92,415.03 568.06,414.275 569.2,413.519 570.34,412.524 571.48,411.528 572.62,410.791 573.76,410.054 574.9,409.796 576.04,409.538 577.18,409.979 578.32,410.42 579.46,411.579 580.6,412.738 581.74,414.149 582.88,415.559 584.02,416.762 585.16,417.965 586.3,418.891 587.44,419.817 588.58,420.516 589.72,421.216 590.86,421.839 592,422.463 593.14,422.904 594.28,423.344 595.42,423.559 596.56,423.773 597.7,423.924 598.84,424.075 599.98,424.132 601.12,424.188 602.26,424.151 603.4,424.113 604.54,423.924 605.68,423.735 606.82,423.452 607.96,423.168 609.1,422.897 610.24,422.626 611.38,422.412 612.52,422.198 613.66,421.927 614.8,421.656 615.94,421.524 617.08,421.392 618.22,421.329 619.36,421.266 620.5,421.367 621.64,421.467 622.78,421.701 623.92,421.934 625.06,422.267 626.2,422.601 627.34,423.048 628.48,423.496 629.62,424.05 630.76,424.604 631.9,425.24 633.04,425.876 634.18,426.374 635.32,426.872 636.46,427.426 637.6,427.98 638.74,428.453 639.88,428.925 641.02,429.353 642.16,429.782 643.3,429.971 644.44,430.16 645.58,430.26 646.72,430.361 647.86,430.342 649,430.323 " />
<polyline fill="none" vector-effect="none" points="421,403.901 422.14,403.301 423.28,402.701 424.42,402.129 425.56,401.557 426.7,401.002 427.84,400.448 428.98,400.058 430.12,399.668 431.26,399.258 432.4,398.849 433.54,398.564 434.68,398.28 435.82,398.157 436.96,398.035 438.1,398.032 439.24,398.029 440.38,398.129 441.52,398.229 442.66,398.448 443.8,398.667 444.94,399.005 446.08,399.344 447.22,399.836 448.36,400.328 449.5,400.738 450.64,401.147 451.78,401.634 452.92,402.12 454.06,402.635 455.2,403.15 456.34,403.622 457.48,404.095 458.62,404.484 459.76,404.874 460.9,405.381 462.04,405.887 463.18,406.28 464.32,406.672 465.46,406.957 466.6,407.241 467.74,407.332 468.88,407.423 470.02,407.77 471.16,408.117 472.3,408.465 473.44,408.812 474.58,409.062 475.72,409.312 476.86,409.588 478,409.864 479.14,410.018 480.28,410.171 481.42,410.376 482.56,410.581 483.7,410.834 484.84,411.087 485.98,411.335 487.12,411.582 488.26,412.089 489.4,412.595 490.54,412.877 491.68,413.159 492.82,413.56 493.96,413.961 495.1,414.487 496.24,415.013 497.38,415.489 498.52,415.964 499.66,416.541 500.8,417.119 501.94,417.699 503.08,418.279 504.22,418.783 505.36,419.286 506.5,419.693 507.64,420.1 508.78,420.45 509.92,420.8 511.06,421.076 512.2,421.352 513.34,421.451 514.48,421.551 515.62,421.505 516.76,421.46 517.9,421.329 519.04,421.198 520.18,420.976 521.32,420.754 522.46,420.484 523.6,420.214 524.74,419.853 525.88,419.491 527.02,419.312 528.16,419.133 529.3,418.959 530.44,418.786 531.58,418.638 532.72,418.49 533.86,418.382 535,418.274 536.14,418.208 537.28,418.143 538.42,418.305 539.56,418.467 540.7,418.453 541.84,418.439 542.98,418.51 544.12,418.581 545.26,418.746 546.4,418.911 547.54,419.102 548.68,419.292 549.82,419.298 550.96,419.304 552.1,419.449 553.24,419.594 554.38,419.508 555.52,419.423 556.66,419.434 557.8,419.446 558.94,419.306 560.08,419.167 561.22,418.905 562.36,418.644 563.5,418.083 564.64,417.523 565.78,416.817 566.92,416.112 568.06,414.939 569.2,413.767 570.34,412.257 571.48,410.746 572.62,409.796 573.76,408.846 574.9,408.399 576.04,407.952 577.18,408.371 578.32,408.789 579.46,410.237 580.6,411.685 581.74,413.352 582.88,415.019 584.02,416.644 585.16,418.268 586.3,419.332 587.44,420.396 588.58,421.201 589.72,422.006 590.86,422.698 592,423.389 593.14,423.964 594.28,424.538 595.42,424.575 596.56,424.612 597.7,424.808 598.84,425.005 599.98,424.934 601.12,424.862 602.26,424.905 603.4,424.948 604.54,424.629 605.68,424.311 606.82,423.983 607.96,423.656 609.1,423.377 610.24,423.099 611.38,422.965 612.52,422.831 613.66,422.541 614.8,422.251 615.94,422.166 617.08,422.08 618.22,422.092 619.36,422.103 620.5,422.14 621.64,422.177 622.78,422.382 623.92,422.587 625.06,422.706 626.2,422.826 627.34,423.173 628.48,423.52 629.62,424.134 630.76,424.749 631.9,425.212 633.04,425.676 634.18,426.123 635.32,426.569 636.46,427.099 637.6,427.628 638.74,427.998 639.88,428.367 641.02,428.823 642.16,429.278 643.3,429.34 644.44,429.403 645.58,429.636 646.72,429.87 647.86,429.668 649,429.466 " />
</g>
</g>
</svg>
